<svg width="100" height="100" viewBox="0 0 100 100" fill="none" xmlns="http://www.w3.org/2000/svg">
<path fill-rule="evenodd" clip-rule="evenodd" d="M50.3939 74.8159C53.8686 73.1529 79.1668 60.2633 79.1668 37.5002C79.1668 21.3919 66.1085 8.3335 50.0002 8.3335C33.8919 8.3335 20.8335 21.3919 20.8335 37.5002C20.8335 60.2633 46.1317 73.1529 49.6064 74.8159C49.8633 74.9389 50.137 74.9389 50.3939 74.8159ZM50.0002 50.0002C56.9037 50.0002 62.5002 44.4037 62.5002 37.5002C62.5002 30.5966 56.9037 25.0002 50.0002 25.0002C43.0966 25.0002 37.5002 30.5966 37.5002 37.5002C37.5002 44.4037 43.0966 50.0002 50.0002 50.0002Z" fill="#20A7DB"/>
<path d="M50.3939 74.8159L50.1781 74.3649L50.1781 74.3649L50.3939 74.8159ZM49.6064 74.8159L49.3905 75.267L49.3905 75.267L49.6064 74.8159ZM78.6668 37.5002C78.6668 48.6845 72.4526 57.4745 65.7432 63.7042C59.037 69.9309 51.8946 73.5434 50.1781 74.3649L50.6098 75.267C52.368 74.4255 59.612 70.7616 66.4236 64.437C73.232 58.1154 79.6668 49.079 79.6668 37.5002H78.6668ZM50.0002 8.8335C65.8323 8.8335 78.6668 21.668 78.6668 37.5002H79.6668C79.6668 21.1157 66.3846 7.8335 50.0002 7.8335V8.8335ZM21.3335 37.5002C21.3335 21.668 34.168 8.8335 50.0002 8.8335V7.8335C33.6157 7.8335 20.3335 21.1157 20.3335 37.5002H21.3335ZM49.8222 74.3649C48.1058 73.5434 40.9633 69.9309 34.2572 63.7042C27.5478 57.4745 21.3335 48.6845 21.3335 37.5002H20.3335C20.3335 49.079 26.7683 58.1154 33.5767 64.437C40.3883 70.7616 47.6324 74.4255 49.3905 75.267L49.8222 74.3649ZM50.1781 74.3649C50.0576 74.4226 49.9427 74.4226 49.8222 74.3649L49.3905 75.267C49.784 75.4552 50.2163 75.4553 50.6098 75.267L50.1781 74.3649ZM62.0002 37.5002C62.0002 44.1276 56.6276 49.5002 50.0002 49.5002V50.5002C57.1799 50.5002 63.0002 44.6799 63.0002 37.5002H62.0002ZM50.0002 25.5002C56.6276 25.5002 62.0002 30.8727 62.0002 37.5002H63.0002C63.0002 30.3205 57.1799 24.5002 50.0002 24.5002V25.5002ZM38.0002 37.5002C38.0002 30.8727 43.3727 25.5002 50.0002 25.5002V24.5002C42.8205 24.5002 37.0002 30.3205 37.0002 37.5002H38.0002ZM50.0002 49.5002C43.3727 49.5002 38.0002 44.1276 38.0002 37.5002H37.0002C37.0002 44.6799 42.8205 50.5002 50.0002 50.5002V49.5002Z" fill="#20A7DB"/>
<path d="M82.4759 72.9165C85.7673 74.8167 87.5 76.9723 87.5 79.1665C87.5 81.3607 85.7673 83.5163 82.476 85.4165C79.1846 87.3167 74.4507 88.8947 68.75 89.9918C63.0493 91.0889 56.5826 91.6665 50 91.6665C43.4174 91.6665 36.9507 91.0889 31.25 89.9918C25.5493 88.8947 20.8154 87.3167 17.524 85.4165C14.2327 83.5163 12.5 81.3607 12.5 79.1665C12.5 76.9723 14.2327 74.8167 17.524 72.9165" stroke="#20A7DB" stroke-width="10" stroke-linecap="round"/>
</svg>
