<svg width="110" height="104" viewBox="0 0 110 104" fill="none" xmlns="http://www.w3.org/2000/svg">
<path d="M40 98.75V61.75C40 58.9497 40 57.5496 40.545 56.48C41.0243 55.5392 41.7892 54.7743 42.7301 54.295C43.7996 53.75 45.1998 53.75 48 53.75H62C64.8003 53.75 66.2004 53.75 67.27 54.295C68.2108 54.7743 68.9757 55.5392 69.455 56.48C70 57.5496 70 58.9497 70 61.75V98.75M5 41.25L50.2 7.35C51.9213 6.05903 52.7819 5.41355 53.7272 5.16472C54.5615 4.94509 55.4385 4.94509 56.2728 5.16473C57.2181 5.41355 58.0787 6.05903 59.8 7.35L105 41.25M15 33.75V82.75C15 88.3505 15 91.1508 16.09 93.2899C17.0487 95.1715 18.5785 96.7013 20.4601 97.6601C22.5992 98.75 25.3995 98.75 31 98.75H79C84.6005 98.75 87.4008 98.75 89.5399 97.6601C91.4215 96.7013 92.9513 95.1715 93.9101 93.2899C95 91.1508 95 88.3505 95 82.75V33.75L64.6 10.95C61.1574 8.36806 59.4361 7.07709 57.5457 6.57945C55.877 6.14018 54.123 6.14018 52.4543 6.57945C50.5639 7.07709 48.8426 8.36806 45.4 10.95L15 33.75Z" stroke="black" stroke-width="10" stroke-linecap="round" stroke-linejoin="round"/>
</svg>
