<svg width="350" height="253" viewBox="0 0 350 253" fill="none" xmlns="http://www.w3.org/2000/svg">
<g clip-path="url(#clip0_1573_1037)">
<rect width="350" height="253" rx="20" fill="white"/>
<path d="M351 0L22 253H0V0H351Z" fill="#4A67C5"/>
<path d="M350 0V253H21L350 0Z" fill="#4361C3"/>
<path fill-rule="evenodd" clip-rule="evenodd" d="M151.507 126.5C151.507 106.632 160.666 88.9448 174.925 77.4957C164.41 69.0538 151.127 64 136.672 64C102.612 64 75 91.983 75 126.499C75 161.015 102.611 188.997 136.672 188.997C151.127 188.997 164.41 183.945 174.925 175.503C160.666 164.055 151.507 146.367 151.507 126.499V126.5Z" fill="#DE2C1D"/>
<path fill-rule="evenodd" clip-rule="evenodd" d="M151.507 126.501C151.507 146.37 160.666 164.058 174.925 175.505C189.185 164.058 198.342 146.369 198.342 126.501C198.342 106.632 189.184 88.9453 174.925 77.4961C160.666 88.944 151.507 106.632 151.507 126.501Z" fill="#ED6100"/>
<path fill-rule="evenodd" clip-rule="evenodd" d="M213.179 64C198.723 64 185.441 69.0539 174.927 77.4958C189.187 88.9438 198.344 106.632 198.344 126.501C198.344 146.37 189.185 164.058 174.927 175.506C185.441 183.947 198.723 189 213.179 189C247.239 189 274.849 161.018 274.849 126.501C274.849 91.9833 247.239 64 213.179 64Z" fill="#F79F06"/>
</g>
<defs>
<clipPath id="clip0_1573_1037">
<rect width="350" height="253" rx="20" fill="white"/>
</clipPath>
</defs>
</svg>
