<svg width="350" height="253" viewBox="0 0 350 253" fill="none" xmlns="http://www.w3.org/2000/svg">
<g clip-path="url(#clip0_1573_936)">
<rect width="350" height="253" fill="white"/>
<path d="M299.166 109.593C296.887 102.968 290.702 98.2118 283.46 98.2118H283.297C278.577 98.2118 274.325 100.226 271.293 103.445C268.262 100.226 264.01 98.2118 259.29 98.2118H259.147C254.997 98.2118 251.192 99.7695 248.283 102.324V101.036C248.181 99.7279 247.144 98.7103 245.842 98.7103H234.693C233.329 98.7103 232.231 99.8318 232.231 101.223V162.989C232.231 164.38 233.329 165.502 234.693 165.502H245.842C247.083 165.502 248.12 164.546 248.263 163.342V119.001C248.263 118.835 248.263 118.71 248.283 118.565C248.466 116.592 249.89 114.951 252.128 114.764H254.183C255.119 114.847 255.912 115.18 256.523 115.699C257.499 116.488 258.028 117.693 258.028 119.022L258.069 163.134C258.069 164.525 259.168 165.668 260.531 165.668H271.68C273.002 165.668 274.06 164.609 274.121 163.279V118.98C274.121 117.526 274.772 116.197 275.932 115.429C276.502 115.055 277.193 114.806 277.987 114.723H280.042C282.463 114.93 283.907 116.8 283.907 118.98L283.948 163.051C283.948 164.442 285.047 165.564 286.41 165.564H297.559C298.861 165.564 299.939 164.525 300.021 163.217V114.889C299.959 112.168 299.614 110.901 299.166 109.593ZM223.727 98.8764H217.359V88.3261C217.359 88.3053 217.359 88.3053 217.359 88.2845C217.359 87.0384 216.362 86 215.1 86C214.958 86 214.815 86.0208 214.673 86.0415C207.613 88.0145 209.017 98.0042 196.118 98.8557H194.877C194.694 98.8557 194.511 98.8764 194.328 98.918C193.25 99.188 192.416 100.185 192.416 101.389V112.771C192.416 114.162 193.514 115.283 194.877 115.283H201.591L201.571 163.508C201.571 164.879 202.669 166 204.012 166H215.039C216.382 166 217.481 164.879 217.481 163.508V115.283H223.727C225.069 115.283 226.188 114.141 226.188 112.771V101.389C226.188 99.9979 225.09 98.8764 223.727 98.8764Z" fill="#00BAF2"/>
<path d="M183.647 98.8762H172.498C171.155 98.8762 170.036 99.9977 170.036 101.389V124.92C170.015 126.374 168.856 127.537 167.432 127.537H162.773C161.328 127.537 160.148 126.353 160.148 124.878L160.107 101.389C160.107 99.9977 159.009 98.8762 157.646 98.8762H146.497C145.133 98.8762 144.035 99.9977 144.035 101.389V127.163C144.035 136.945 150.871 143.944 160.474 143.944C160.474 143.944 167.676 143.944 167.9 143.985C169.202 144.131 170.199 145.252 170.199 146.623C170.199 147.973 169.222 149.094 167.92 149.26C167.859 149.26 167.798 149.281 167.737 149.302L151.44 149.364C150.077 149.364 148.979 150.486 148.979 151.877V163.238C148.979 164.629 150.077 165.751 151.44 165.751H169.649C179.252 165.751 186.088 158.772 186.088 148.99V101.389C186.108 99.9977 185.01 98.8762 183.647 98.8762ZM120.251 98.9385H104.789C103.426 98.9385 102.307 99.9977 102.307 101.285V105.709C102.307 105.73 102.307 105.771 102.307 105.792C102.307 105.834 102.307 105.854 102.307 105.896V111.96C102.307 113.331 103.487 114.473 104.932 114.473H119.661C120.821 114.66 121.737 115.533 121.879 116.882V118.357C121.757 119.645 120.841 120.579 119.722 120.683H112.439C102.734 120.683 95.8374 127.267 95.8374 136.488V149.717C95.8374 158.897 101.778 165.418 111.401 165.418H131.604C135.225 165.418 138.175 162.615 138.175 159.167V116.01C138.175 105.543 132.886 98.9385 120.251 98.9385ZM122.021 146.415V148.201C122.021 148.347 122.001 148.492 121.981 148.617C121.96 148.741 121.92 148.866 121.879 148.99C121.533 149.987 120.557 150.714 119.397 150.714H114.758C113.314 150.714 112.134 149.593 112.134 148.201V146.062C112.134 146.041 112.134 146 112.134 145.979V140.268V138.482V138.461C112.134 137.09 113.314 135.969 114.758 135.969H119.397C120.841 135.969 122.021 137.09 122.021 138.482V146.415ZM76.7741 98.8555H52.4211C51.0783 98.8555 50 99.977 50 101.327V112.48C50 112.5 50 112.521 50 112.542C50 112.604 50 112.646 50 112.687V163.134C50 164.504 50.9969 165.626 52.2583 165.647H63.6108C64.974 165.647 66.0726 164.525 66.0726 163.134L66.1133 145.854H76.7741C85.6852 145.854 91.9108 139.541 91.9108 130.382V114.349C91.9108 105.211 85.6852 98.8555 76.7741 98.8555ZM75.7975 119.707V126.727C75.7975 128.201 74.6379 129.406 73.1934 129.406H66.1336V115.346H73.1934C74.6379 115.346 75.7975 116.529 75.7975 118.004V119.707Z" fill="#20336B"/>
</g>
<defs>
<clipPath id="clip0_1573_936">
<rect width="350" height="253" rx="20" fill="white"/>
</clipPath>
</defs>
</svg>
