<svg width="350" height="253" viewBox="0 0 350 253" fill="none" xmlns="http://www.w3.org/2000/svg">
<rect width="350" height="253" rx="20" fill="white"/>
<path d="M198.209 27.7029C178.769 23.1127 158.403 24.3902 139.689 31.3738C120.974 38.3574 104.751 50.7336 93.0695 66.9374C81.3885 83.1411 74.7745 102.445 74.0639 122.407C73.3534 142.37 78.5782 162.095 89.0777 179.088C99.5772 196.081 114.88 209.58 133.051 217.876C151.221 226.173 171.444 228.895 191.162 225.698C210.88 222.502 229.207 213.531 243.826 199.918C258.445 186.306 268.7 168.665 273.293 149.225C276.344 136.316 276.821 122.932 274.698 109.838C272.576 96.7441 267.895 84.1965 260.922 72.9119C253.95 61.6272 244.823 51.8265 234.063 44.0695C223.302 36.3125 211.119 30.7511 198.209 27.7029Z" fill="#5F259F"/>
<path d="M220.837 99.6468C220.782 97.7266 219.989 95.9014 218.623 94.5508C217.257 93.2001 215.423 92.428 213.503 92.3949H199.953L168.923 56.7604C167.471 55.1295 165.586 53.945 163.486 53.3452C161.387 52.7454 159.16 52.755 157.066 53.3729L146.312 56.7604C145.93 56.89 145.585 57.1102 145.306 57.4021C145.028 57.6941 144.824 58.0491 144.712 58.4369C144.601 58.8248 144.585 59.2338 144.666 59.6291C144.747 60.0244 144.922 60.3943 145.177 60.707L179.069 92.8718H127.73C127.357 92.8553 126.985 92.9168 126.637 93.0525C126.289 93.1882 125.974 93.3951 125.711 93.6598C125.448 93.9245 125.243 94.2413 125.109 94.5898C124.975 94.9383 124.916 95.3109 124.935 95.6837V101.324C124.968 103.259 125.752 105.105 127.12 106.473C128.488 107.841 130.334 108.624 132.269 108.658H140.178V135.758C140.178 156.067 150.9 167.923 168.955 167.923C174.362 168.089 179.745 167.126 184.758 165.094V183.183C184.743 184.373 184.966 185.554 185.414 186.656C185.862 187.758 186.527 188.76 187.368 189.601C188.209 190.443 189.211 191.107 190.313 191.555C191.415 192.003 192.596 192.226 193.786 192.211H201.679C202.558 192.15 203.384 191.773 204.006 191.15C204.629 190.528 205.006 189.702 205.067 188.823V108.115H218.008C218.385 108.137 218.763 108.079 219.116 107.944C219.469 107.809 219.789 107.602 220.056 107.335C220.323 107.068 220.531 106.747 220.665 106.394C220.8 106.041 220.858 105.664 220.837 105.287V99.6468ZM184.66 148.173C181.1 149.73 177.247 150.499 173.363 150.426C164.335 150.426 159.829 145.921 159.829 135.758V108.675H184.66V148.141V148.173Z" fill="white"/>
</svg>
