<svg width="350" height="253" viewBox="0 0 350 253" fill="none" xmlns="http://www.w3.org/2000/svg">
<rect width="350" height="253" rx="20" fill="white"/>
<path fill-rule="evenodd" clip-rule="evenodd" d="M302.721 71.144L322.673 110.832L280.707 150.545L285.695 132.535L308.645 110.832L297.733 89.1297L302.721 71.144Z" fill="#0E8635"/>
<path fill-rule="evenodd" clip-rule="evenodd" d="M288.692 71.144L308.644 110.832L266.654 150.545L288.692 71.144Z" fill="#E97208"/>
<path d="M31.0666 165.604H33.3927L31.2344 174.597C30.9227 175.94 30.9706 176.947 31.4263 177.619C31.8579 178.29 32.6973 178.626 33.8963 178.626C35.0953 178.626 36.0546 178.29 36.822 177.619C37.5893 176.947 38.1169 175.94 38.4527 174.597L40.6109 165.604H42.961L40.7308 174.837C40.2512 176.851 39.3879 178.338 38.1649 179.345C36.9419 180.353 35.3351 180.832 33.3447 180.832C31.3543 180.832 29.9874 180.329 29.244 179.345C28.5006 178.362 28.3807 176.851 28.8603 174.837L31.0666 165.604ZM253.513 150.209H237.733L259.676 71H275.455L253.513 150.209ZM122.338 145.245C121.474 148.362 118.597 150.568 115.359 150.568H33.9922C31.762 150.568 30.1073 149.801 29.0282 148.314C27.9491 146.803 27.7092 144.933 28.3567 142.703L48.1889 71.2158H63.9682L46.2704 135.077H109.412L127.134 71.2158H142.913L122.338 145.245ZM245.335 73.494C244.256 71.9832 242.553 71.2398 240.275 71.2398H153.537L149.268 86.7794H228.165L223.561 103.35H160.419V103.302H144.64L131.546 150.592H147.326L156.103 118.866H227.038C229.268 118.866 231.354 118.122 233.297 116.612C235.239 115.101 236.534 113.23 237.134 111L245.911 79.2734C246.63 76.8993 246.414 75.0048 245.335 73.494ZM310.491 180.424L314.04 165.604H322.098L321.618 167.643H315.911L315.023 171.36H320.731L320.227 173.47H314.52L313.369 178.266H319.076L318.573 180.424H310.491ZM310.251 169.201C309.724 168.626 309.124 168.194 308.453 167.906C307.781 167.619 307.038 167.475 306.222 167.475C304.64 167.475 303.225 168.002 302.002 169.034C300.755 170.065 299.939 171.432 299.556 173.086C299.172 174.693 299.34 176.012 300.059 177.043C300.779 178.074 301.858 178.602 303.345 178.602C304.208 178.602 305.047 178.434 305.887 178.122C306.726 177.811 307.589 177.331 308.453 176.707L307.805 179.441C307.062 179.897 306.294 180.257 305.503 180.472C304.712 180.688 303.872 180.808 303.009 180.808C301.906 180.808 300.923 180.616 300.083 180.257C299.244 179.897 298.549 179.345 297.997 178.626C297.469 177.93 297.11 177.091 296.966 176.132C296.822 175.173 296.87 174.141 297.134 173.062C297.398 171.983 297.829 170.952 298.429 169.993C299.028 169.034 299.796 168.194 300.683 167.475C301.57 166.755 302.529 166.204 303.537 165.82C304.544 165.436 305.599 165.269 306.678 165.269C307.517 165.269 308.309 165.388 309.004 165.652C309.7 165.916 310.371 166.3 310.971 166.803L310.251 169.201ZM292.481 180.424L291.762 176.612H286.031L283.441 180.424H280.971L291.666 165.005L294.975 180.424H292.481ZM287.374 174.597H291.402L290.731 171.216C290.707 171 290.659 170.76 290.635 170.472C290.611 170.185 290.587 169.873 290.587 169.537C290.419 169.849 290.275 170.161 290.107 170.448C289.963 170.736 289.796 170.976 289.652 171.216L287.374 174.597ZM273.057 180.424L276.606 165.604H284.664L284.184 167.643H278.477L277.589 171.336H283.297L282.793 173.446H277.086L275.407 180.424H273.057ZM265.503 173.806L263.92 180.448H261.714L265.263 165.628H268.549C269.508 165.628 270.227 165.7 270.731 165.82C271.234 165.94 271.642 166.156 271.93 166.468C272.29 166.827 272.529 167.283 272.625 167.859C272.721 168.434 272.697 169.058 272.553 169.729C272.266 170.928 271.762 171.839 271.043 172.511C270.323 173.182 269.388 173.59 268.285 173.71L271.642 180.448H268.98L265.767 173.806H265.503ZM266.103 171.911H266.534C267.781 171.911 268.645 171.767 269.124 171.456C269.604 171.168 269.939 170.64 270.107 169.873C270.299 169.058 270.227 168.482 269.868 168.146C269.508 167.811 268.74 167.643 267.565 167.643H267.134L266.103 171.911ZM250.971 180.424L254.52 165.604H262.577L262.098 167.643H256.39L255.503 171.36H261.21L260.707 173.47H254.999L253.848 178.266H259.556L259.028 180.424H250.971ZM248.405 167.643L245.335 180.424H242.985L246.055 167.643H242.218L242.697 165.604H252.697L252.218 167.643H248.405ZM224.448 180.424L228.141 165.005L235.143 174.07C235.335 174.333 235.527 174.597 235.695 174.885C235.887 175.173 236.079 175.508 236.27 175.868L238.74 165.58H240.923L237.23 180.976L230.059 171.743C229.868 171.504 229.7 171.24 229.532 170.952C229.364 170.664 229.22 170.376 229.076 170.089L226.606 180.4H224.448V180.424ZM218.716 180.424L222.266 165.604H224.616L221.067 180.424H218.716ZM201.354 177.451L203.441 176.564C203.465 177.235 203.657 177.739 204.064 178.074C204.448 178.41 205.023 178.602 205.767 178.602C206.462 178.602 207.062 178.41 207.565 178.002C208.069 177.595 208.405 177.067 208.573 176.396C208.788 175.532 208.261 174.741 207.014 174.07C206.846 173.974 206.702 173.902 206.606 173.854C205.215 173.062 204.304 172.343 203.944 171.695C203.561 171.048 203.489 170.257 203.728 169.321C204.016 168.122 204.64 167.139 205.623 166.396C206.606 165.652 207.733 165.269 209.028 165.269C210.083 165.269 210.923 165.484 211.546 165.892C212.17 166.324 212.505 166.923 212.601 167.715L210.539 168.698C210.347 168.242 210.131 167.882 209.82 167.667C209.532 167.451 209.148 167.355 208.716 167.355C208.093 167.355 207.541 167.523 207.086 167.859C206.63 168.194 206.342 168.65 206.198 169.225C205.983 170.113 206.606 170.952 208.045 171.719C208.165 171.791 208.237 171.815 208.309 171.863C209.58 172.535 210.395 173.206 210.779 173.854C211.163 174.501 211.234 175.293 210.995 176.276C210.659 177.691 209.963 178.794 208.908 179.633C207.853 180.448 206.582 180.88 205.119 180.88C203.896 180.88 202.937 180.592 202.314 180.017C201.666 179.369 201.354 178.554 201.354 177.451ZM198.908 167.643L195.863 180.424H193.513L196.582 167.643H192.745L193.249 165.604H203.249L202.769 167.643H198.908ZM174.951 180.424L178.645 165.005L185.647 174.07C185.839 174.333 186.031 174.597 186.198 174.885C186.39 175.173 186.582 175.508 186.774 175.868L189.244 165.58H191.426L187.733 180.976L180.563 171.743C180.371 171.504 180.203 171.24 180.035 170.952C179.868 170.664 179.724 170.376 179.58 170.089L177.11 180.4H174.951V180.424ZM164.184 180.424L167.733 165.604H175.791L175.311 167.643H169.604L168.716 171.36H174.424L173.92 173.47H168.213L167.062 178.266H172.769L172.242 180.424H164.184ZM160.275 173.11C160.275 172.99 160.299 172.679 160.371 172.151C160.419 171.719 160.467 171.36 160.491 171.072C160.347 171.408 160.179 171.743 159.987 172.079C159.796 172.415 159.58 172.751 159.34 173.11L153.657 181L151.81 172.942C151.738 172.607 151.666 172.295 151.642 171.983C151.594 171.671 151.57 171.36 151.57 171.072C151.498 171.384 151.378 171.695 151.258 172.055C151.139 172.391 150.995 172.751 150.803 173.134L147.493 180.424H145.335L152.457 164.957L154.472 174.309C154.496 174.453 154.544 174.717 154.592 175.053C154.64 175.388 154.712 175.82 154.784 176.324C155.023 175.892 155.359 175.365 155.815 174.693C155.935 174.525 156.031 174.381 156.079 174.285L162.481 164.933L162.266 180.4H160.131L160.275 173.11ZM137.877 180.424L139.508 173.638L136.558 165.604H139.028L140.851 170.64C140.899 170.76 140.947 170.952 140.995 171.144C141.043 171.36 141.115 171.576 141.162 171.815C141.306 171.576 141.474 171.36 141.618 171.144C141.762 170.928 141.93 170.736 142.074 170.568L146.366 165.604H148.716L141.81 173.638L140.179 180.424H137.877ZM132.026 180.424L131.306 176.612H125.575L122.985 180.424H120.515L131.21 165.005L134.52 180.424H132.026ZM126.918 174.597H130.947L130.275 171.216C130.251 171 130.203 170.76 130.179 170.472C130.155 170.185 130.131 169.873 130.131 169.537C129.987 169.849 129.82 170.161 129.652 170.448C129.508 170.736 129.34 170.976 129.196 171.216L126.918 174.597ZM116.63 173.782L115.047 180.448H112.841L116.39 165.628H119.939C120.995 165.628 121.762 165.676 122.218 165.796C122.673 165.916 123.081 166.108 123.369 166.372C123.728 166.707 123.992 167.187 124.088 167.763C124.208 168.338 124.184 168.986 124.016 169.681C123.848 170.377 123.561 171.024 123.177 171.623C122.769 172.223 122.314 172.679 121.786 173.014C121.354 173.278 120.875 173.47 120.347 173.59C119.82 173.71 119.028 173.758 117.973 173.758H116.63V173.782ZM117.23 171.791H117.829C119.124 171.791 120.035 171.647 120.539 171.36C121.043 171.072 121.378 170.568 121.57 169.825C121.762 169.034 121.666 168.482 121.282 168.146C120.899 167.811 120.083 167.667 118.836 167.667H118.237L117.23 171.791ZM91.762 180.424L95.3112 165.604H98.4766C100.539 165.604 101.954 165.7 102.745 165.916C103.537 166.132 104.184 166.492 104.688 166.995C105.359 167.643 105.791 168.482 105.983 169.513C106.174 170.544 106.103 171.719 105.791 173.038C105.479 174.357 104.975 175.532 104.304 176.54C103.633 177.547 102.793 178.386 101.81 179.058C101.067 179.561 100.251 179.921 99.3879 180.137C98.5246 180.353 97.2536 180.448 95.551 180.448H91.762V180.424ZM94.6397 178.242H96.6061C97.6853 178.242 98.5246 178.17 99.1001 178.026C99.6757 177.882 100.203 177.619 100.707 177.283C101.378 176.803 101.93 176.204 102.362 175.484C102.817 174.765 103.153 173.95 103.369 172.99C103.585 172.055 103.656 171.216 103.561 170.496C103.465 169.777 103.201 169.177 102.769 168.698C102.433 168.338 102.026 168.098 101.474 167.954C100.947 167.811 100.059 167.739 98.8603 167.739H97.1577L94.6397 178.242ZM80.9946 180.424L84.5438 165.604H92.6013L92.1217 167.643H86.4143L85.527 171.36H91.2344L90.7308 173.47H85.0234L83.8723 178.266H89.5798L89.0522 180.424H80.9946ZM75.2632 180.424L78.8124 165.604H81.1625L77.6133 180.424H75.2632ZM64.6157 180.424L68.1649 165.604H76.2224L75.7428 167.643H70.0354L69.1481 171.336H74.8555L74.3519 173.446H68.6445L66.9658 180.424H64.6157ZM58.9083 180.424L62.4575 165.604H64.8076L61.2584 180.424H58.9083ZM42.6253 180.424L46.3184 165.005L53.3208 174.07C53.5126 174.333 53.7045 174.597 53.8723 174.885C54.0642 175.173 54.256 175.508 54.4479 175.868L56.9179 165.58H59.1001L55.4071 180.976L48.2608 171.743C48.069 171.504 47.9011 171.24 47.7332 170.952C47.5654 170.664 47.4215 170.376 47.2776 170.089L44.7836 180.424H42.6253Z" fill="#66686C"/>
</svg>
