<svg width="350" height="253" viewBox="0 0 350 253" fill="none" xmlns="http://www.w3.org/2000/svg">
<g clip-path="url(#clip0_1573_1036)">
<rect width="350" height="253" rx="20" fill="white"/>
<path fill-rule="evenodd" clip-rule="evenodd" d="M141.43 159.993L152.988 92.1766H171.471L159.907 159.993H141.43ZM226.949 93.8484C223.286 92.4719 217.548 91 210.381 91C192.118 90.9978 179.25 100.198 179.142 113.38C179.039 123.121 188.327 128.559 195.339 131.804C202.533 135.125 204.953 137.247 204.918 140.216C204.872 144.759 199.172 146.838 193.859 146.838C186.461 146.838 182.53 145.81 176.46 143.279L174.077 142.198L171.483 157.38C175.801 159.274 183.783 160.915 192.073 161C211.503 160.999 224.117 151.908 224.261 137.831C224.33 130.115 219.406 124.246 208.742 119.406C202.281 116.266 198.323 114.176 198.366 110.998C198.366 108.179 201.715 105.166 208.951 105.166C214.997 105.07 219.373 106.39 222.785 107.764L224.443 108.545L226.947 93.8495L226.949 93.8484ZM274.349 92.2406H260.065C255.64 92.2406 252.328 93.451 250.385 97.8667L222.934 160.013H242.344C242.344 160.013 245.518 151.659 246.236 149.824C248.358 149.824 267.214 149.853 269.909 149.853C270.463 152.227 272.158 160.014 272.158 160.014L289.312 160.013L274.35 92.2406H274.349ZM251.555 135.953C253.084 132.045 258.919 116.997 258.919 116.997C258.811 117.177 260.436 113.071 261.37 110.525L262.621 116.37C262.621 116.37 266.158 132.56 266.898 135.954L251.554 135.953H251.555ZM125.927 92.226L107.831 138.472L105.902 129.075C102.533 118.24 92.0357 106.504 80.3008 100.628L96.849 159.935L116.406 159.911L145.507 92.226H125.927Z" fill="#191E70"/>
<path fill-rule="evenodd" clip-rule="evenodd" d="M91.0425 92.186H61.2358L61 93.5973C84.1892 99.2088 99.5327 112.776 105.902 129.075L99.4205 97.9121C98.3022 93.6175 95.0563 92.3365 91.0425 92.186Z" fill="#F7B600"/>
<rect width="350" height="80" fill="#1661A3"/>
<path d="M350 0V80H239.055L350 0Z" fill="#09599E"/>
<rect y="173" width="350" height="80" fill="#E59703"/>
<path d="M8.39233e-05 253L8.39233e-05 173L110.945 173L8.39233e-05 253Z" fill="#E69C10"/>
</g>
<defs>
<clipPath id="clip0_1573_1036">
<rect width="350" height="253" rx="20" fill="white"/>
</clipPath>
</defs>
</svg>
