<svg width="94" height="94" viewBox="0 0 94 94" fill="none" xmlns="http://www.w3.org/2000/svg">
<circle cx="47" cy="47" r="47" fill="white"/>
<circle cx="47" cy="47" r="40" fill="#23A26D" fill-opacity="0.12"/>
<path d="M46.2859 27.9526C35.7907 27.9526 27.2383 36.505 27.2383 47.0003C27.2383 57.4955 35.7907 66.0479 46.2859 66.0479C56.7811 66.0479 65.3335 57.4955 65.3335 47.0003C65.3335 36.505 56.7811 27.9526 46.2859 27.9526ZM55.3907 42.6193L44.5907 53.4193C44.324 53.686 43.9621 53.8384 43.5811 53.8384C43.2002 53.8384 42.8383 53.686 42.5716 53.4193L37.1811 48.0288C36.6288 47.4764 36.6288 46.5622 37.1811 46.0098C37.7335 45.4574 38.6478 45.4574 39.2002 46.0098L43.5811 50.3907L53.3716 40.6003C53.924 40.0479 54.8383 40.0479 55.3907 40.6003C55.943 41.1526 55.943 42.0479 55.3907 42.6193Z" fill="#23A26D"/>
</svg>
