<svg width="100" height="100" viewBox="0 0 100 100" fill="none" xmlns="http://www.w3.org/2000/svg">
<path d="M13.9507 0.26936C11.5084 0.718685 8.87062 1.83223 7.01442 3.19974C5.60762 4.23514 3.24342 6.81388 2.44232 8.18139C0.703362 11.1313 0.0976562 13.4365 0.0976562 16.9725C0.0976562 19.8638 0.410278 21.4658 1.52399 23.8882C3.30203 27.7954 6.93627 31.2533 10.9222 32.7771C13.6186 33.832 15.0644 33.9688 23.0558 33.9688C27.1395 33.9688 30.4611 33.8906 30.7346 33.7734C31.7116 33.4022 32.1805 31.9566 31.6334 30.9602C31.4966 30.7063 30.8714 30.1983 30.2462 29.8467C29.6209 29.4755 29.0934 29.0848 29.0934 28.9676C29.0934 28.8503 29.2887 28.5964 29.5037 28.3815C30.8323 27.1898 32.5322 24.1422 33.3333 21.5244C33.7827 20.0006 33.8413 19.4927 33.8413 16.9725C33.8413 14.4524 33.7827 13.9445 33.3333 12.4207C31.5943 6.75527 27.5498 2.57459 22.0594 0.796829C19.4998 -0.0432129 16.5885 -0.219036 13.9507 0.26936ZM19.5584 3.1802C27.159 4.6454 32.2196 12.0104 30.7737 19.5513C30.2266 22.4035 29.0738 24.572 26.8268 26.9554C25.6741 28.1861 25.5764 28.362 25.5764 29.1434C25.5764 29.7295 25.7131 30.1788 25.9867 30.5304L26.3775 31.0384H21.1215C15.2598 31.0384 13.8335 30.8625 11.5279 29.9053C8.92923 28.8113 6.38918 26.5842 4.88468 24.1227C4.53298 23.5171 3.96636 22.2668 3.63419 21.329C3.08711 19.7466 3.02849 19.395 3.02849 17.0702C3.00895 14.9408 3.08711 14.2961 3.45834 13.0654C4.2399 10.6038 5.17777 9.04097 7.01442 7.18506C10.4923 3.6686 14.8495 2.28156 19.5584 3.1802Z" fill="#7A8BCA"/>
<path d="M13.9507 0.26936C11.5084 0.718685 8.87062 1.83223 7.01442 3.19974C5.60762 4.23514 3.24342 6.81388 2.44232 8.18139C0.703362 11.1313 0.0976562 13.4365 0.0976562 16.9725C0.0976562 19.8638 0.410278 21.4658 1.52399 23.8882C3.30203 27.7954 6.93627 31.2533 10.9222 32.7771C13.6186 33.832 15.0644 33.9688 23.0558 33.9688C27.1395 33.9688 30.4611 33.8906 30.7346 33.7734C31.7116 33.4022 32.1805 31.9566 31.6334 30.9602C31.4966 30.7063 30.8714 30.1983 30.2462 29.8467C29.6209 29.4755 29.0934 29.0848 29.0934 28.9676C29.0934 28.8503 29.2887 28.5964 29.5037 28.3815C30.8323 27.1898 32.5322 24.1422 33.3333 21.5244C33.7827 20.0006 33.8413 19.4927 33.8413 16.9725C33.8413 14.4524 33.7827 13.9445 33.3333 12.4207C31.5943 6.75527 27.5498 2.57459 22.0594 0.796829C19.4998 -0.0432129 16.5885 -0.219036 13.9507 0.26936ZM19.5584 3.1802C27.159 4.6454 32.2196 12.0104 30.7737 19.5513C30.2266 22.4035 29.0738 24.572 26.8268 26.9554C25.6741 28.1861 25.5764 28.362 25.5764 29.1434C25.5764 29.7295 25.7131 30.1788 25.9867 30.5304L26.3775 31.0384H21.1215C15.2598 31.0384 13.8335 30.8625 11.5279 29.9053C8.92923 28.8113 6.38918 26.5842 4.88468 24.1227C4.53298 23.5171 3.96636 22.2668 3.63419 21.329C3.08711 19.7466 3.02849 19.395 3.02849 17.0702C3.00895 14.9408 3.08711 14.2961 3.45834 13.0654C4.2399 10.6038 5.17777 9.04097 7.01442 7.18506C10.4923 3.6686 14.8495 2.28156 19.5584 3.1802Z" stroke="#7A8BCA"/>
<path d="M10.0823 15.9568C9.63292 16.4452 9.65246 17.6173 10.1019 18.0081C10.5903 18.4574 11.7627 18.4379 12.1534 17.9885C12.6028 17.5001 12.5833 16.328 12.1339 15.9373C11.6454 15.4879 10.4731 15.5075 10.0823 15.9568Z" fill="#7A8BCA"/>
<path d="M10.0823 15.9568C9.63292 16.4452 9.65246 17.6173 10.1019 18.0081C10.5903 18.4574 11.7627 18.4379 12.1534 17.9885C12.6028 17.5001 12.5833 16.328 12.1339 15.9373C11.6454 15.4879 10.4731 15.5075 10.0823 15.9568Z" stroke="#7A8BCA"/>
<path d="M15.9436 15.9568C15.4943 16.4452 15.5138 17.6173 15.9632 18.0081C16.4517 18.4574 17.624 18.4379 18.0148 17.9885C18.4642 17.5001 18.4446 16.328 17.9952 15.9373C17.5068 15.4879 16.3344 15.5075 15.9436 15.9568Z" fill="#7A8BCA"/>
<path d="M15.9436 15.9568C15.4943 16.4452 15.5138 17.6173 15.9632 18.0081C16.4517 18.4574 17.624 18.4379 18.0148 17.9885C18.4642 17.5001 18.4446 16.328 17.9952 15.9373C17.5068 15.4879 16.3344 15.5075 15.9436 15.9568Z" stroke="#7A8BCA"/>
<path d="M21.8055 15.9568C21.3561 16.4452 21.3756 17.6173 21.825 18.0081C22.3135 18.4574 23.4858 18.4379 23.8766 17.9885C24.326 17.5001 24.3064 16.328 23.857 15.9373C23.3686 15.4879 22.1962 15.5075 21.8055 15.9568Z" fill="#7A8BCA"/>
<path d="M21.8055 15.9568C21.3561 16.4452 21.3756 17.6173 21.825 18.0081C22.3135 18.4574 23.4858 18.4379 23.8766 17.9885C24.326 17.5001 24.3064 16.328 23.857 15.9373C23.3686 15.4879 22.1962 15.5075 21.8055 15.9568Z" stroke="#7A8BCA"/>
<path d="M56.9363 0.0935165C47.9093 1.38288 40.8558 7.08736 37.8273 15.5464C36.8503 18.2228 36.6745 19.7661 36.5182 26.3497C36.3619 33.0896 36.2837 33.6562 35.0528 36.2154C34.6815 36.9773 33.7437 38.4815 32.9426 39.5755C30.8128 42.5059 30.0703 44.4986 30.0703 47.3508C30.0899 52.1762 32.9426 56.5522 37.2607 58.3104C38.5307 58.8184 38.8824 58.5644 33.8804 60.7329C31.8484 61.612 29.6991 62.6083 29.1129 62.9209C26.651 64.3275 24.5213 66.6327 23.3099 69.231C21.9812 72.1028 22.0008 71.9074 21.9226 83.0429L21.8445 93.1624L22.3329 93.6508C22.9386 94.2369 23.5834 94.276 24.2868 93.729L24.7948 93.3383V83.922C24.7948 73.314 24.8535 72.8451 26.1626 70.1882C27.0809 68.2933 28.898 66.3788 30.6174 65.4606C31.907 64.7768 41.1489 60.7329 41.4224 60.7329C41.5397 60.7329 41.5787 62.5302 41.5592 65.0894L41.5006 69.4263L38.5698 69.524C35.4045 69.6217 34.9355 69.7585 33.9586 70.8329C33.1184 71.7316 32.8058 72.5326 32.8058 73.8415C32.8058 74.8573 34.7206 93.6704 35.0723 96.2491L35.1895 97.0696H18.0735H0.937866L0.468933 97.558C-0.156311 98.1636 -0.156311 98.906 0.468933 99.5116L0.937866 100H50H99.0621L99.5311 99.5116C100.156 98.906 100.156 98.1636 99.5311 97.558C99.1598 97.1673 98.8667 97.0696 98.0657 97.0696H97.0887V85.563C97.0887 73.1577 97.0301 72.3763 96.0531 69.9147C94.9394 67.1602 92.6729 64.4447 90.3283 63.0381C89.3904 62.452 83.7046 59.8928 81.2818 58.9551C80.8519 58.7793 80.9105 58.7207 82.161 58.1151C84.9355 56.7866 86.9871 54.5595 88.1204 51.6487C88.6479 50.3398 88.7651 49.7342 88.8433 48.0346C88.8824 46.8429 88.8238 45.5144 88.7065 44.8893C88.3744 43.346 87.3779 41.3533 86.0492 39.6341C85.424 38.8332 84.5838 37.4657 84.1735 36.5865C82.8449 33.7929 82.7862 33.4022 82.6104 26.2521C82.5322 22.6965 82.3759 19.395 82.2587 18.887C81.1645 13.8858 79.2692 10.2912 76.0063 6.95061C72.7237 3.59044 68.8746 1.46103 64.2243 0.445162C62.8566 0.152124 58.1477 -0.0823064 56.9363 0.0935165ZM62.798 3.19972C63.7749 3.35601 65.1817 3.68812 65.9633 3.96162C67.5068 4.48909 70.5158 5.99335 70.5158 6.22778C70.5158 6.48175 68.4447 9.31445 67.0184 10.9945C61.059 18.1056 50.5471 23.224 41.9109 23.224C39.0582 23.224 39.3122 23.4975 39.6444 20.6843C41.0512 9.27538 51.524 1.36335 62.798 3.19972ZM76.1821 11.6978C78.0578 14.4524 79.3474 18.1447 79.6209 21.5244L79.7577 23.1849L78.8394 23.3217C76.8855 23.6147 73.1145 22.9896 70.848 21.9737C70.3009 21.7393 69.2653 21.1532 68.5619 20.7039C67.1942 19.8052 66.6081 19.7661 65.9828 20.528C65.4357 21.1532 65.5334 21.9932 66.2173 22.6184C67.0965 23.4194 69.7734 24.7869 71.6686 25.3925L73.349 25.9199L73.4076 29.8076L73.4467 33.6757L72.8214 34.9065C72.4893 35.5902 71.7663 36.6061 71.2192 37.1726C70.2227 38.208 68.2689 39.6341 67.8585 39.6341C67.7413 39.6341 67.4091 39.3411 67.1161 38.9699C66.1977 37.7587 65.2989 37.4852 62.1336 37.4852C59.4764 37.4852 59.281 37.5047 58.3822 37.9931C55.4318 39.6146 55.4123 43.7171 58.3431 45.4363C59.2614 45.9638 59.3591 45.9833 62.1141 45.9833C64.6542 45.9833 65.0254 45.9442 65.7483 45.5535C66.6471 45.0651 67.3896 44.2837 67.7608 43.4241C67.8976 43.0529 68.3861 42.6427 69.1481 42.2129C69.7929 41.8612 70.8871 41.1384 71.5905 40.6109C72.3134 40.0639 72.9191 39.6341 72.9777 39.6341C73.2122 39.6341 72.7823 40.9821 72.1376 42.3301C70.8675 45.026 68.1516 47.3313 65.1426 48.2885C63.8921 48.6792 63.3841 48.7183 59.3787 48.7183C55.295 48.7183 54.8847 48.6792 53.7124 48.2495C49.8046 46.8624 46.991 43.8734 45.9945 40.0835C45.7601 39.2043 45.7014 37.5829 45.7014 32.4645V25.959L46.1508 25.8809C49.0817 25.2753 50.0391 25.0213 52.032 24.3766C59.789 21.8369 66.9402 16.5037 71.7077 9.74424L72.9582 7.96648L74.1501 9.21677C74.8144 9.92006 75.7327 11.0336 76.1821 11.6978ZM42.8097 33.2264C42.8878 40.0249 42.9074 40.3765 43.3372 41.5877C44.4314 44.7135 46.6784 47.7025 49.0817 49.2067C50.3908 50.0272 50.4494 50.3398 49.6288 52.0394C48.9254 53.5632 47.6553 54.6963 45.7405 55.5754C44.236 56.2592 44.2165 56.2787 41.8718 56.2006C39.6249 56.142 39.4685 56.1224 38.0617 55.4191C34.6815 53.739 32.8449 50.6524 33.0403 46.9015C33.1379 44.8111 33.7046 43.4436 35.3654 41.2556C36.8503 39.302 38.1204 36.8405 38.7847 34.6329C39.2341 33.1287 39.3122 32.4645 39.4099 29.5145L39.4881 26.1544H41.1098H42.7511L42.8097 33.2264ZM79.7577 29.6122C79.8359 32.6403 79.914 33.324 80.3634 34.8478C81.1059 37.2898 82.0047 39.1067 83.5287 41.1189C84.2517 42.0761 85.0528 43.346 85.3458 43.932C85.7952 44.9088 85.8539 45.2409 85.8539 47.3508C85.8539 49.5193 85.8148 49.7928 85.3068 50.8673C83.6069 54.5009 80.8519 56.2396 76.8269 56.2396C75.127 56.2396 74.8339 56.181 73.3099 55.5168C70.8089 54.4423 69.1481 52.5864 68.8355 50.5352C68.7378 49.9295 68.7964 49.8514 69.7343 49.3044C71.2974 48.3862 73.603 45.8661 74.5799 43.9906C76.1039 41.0603 76.2212 40.2593 76.3189 32.8552L76.4166 26.3693L77.8234 26.2911C78.5854 26.2716 79.3083 26.213 79.4256 26.1935C79.5819 26.1739 79.6796 27.2093 79.7577 29.6122ZM64.7323 40.7281C65.4748 41.451 65.2599 42.6036 64.3415 42.9552C63.6577 43.2287 60.4728 43.1897 59.9062 42.9357C59.4764 42.7403 58.9879 42.037 58.9879 41.6073C58.9879 41.5096 59.1637 41.2165 59.3982 40.9235C59.789 40.4351 59.8476 40.4156 62.1141 40.4156C63.9508 40.4156 64.4979 40.4742 64.7323 40.7281ZM55.3732 51.5706C57.2098 51.8441 62.6026 51.7659 64.3611 51.4533C65.2208 51.2971 65.9437 51.1603 65.9828 51.1603C66.0023 51.1603 66.0219 51.3166 66.0219 51.5119C66.0219 51.7073 66.3345 52.4887 66.7057 53.2897C67.7413 55.4582 69.2067 56.8062 71.8249 58.0174C72.9973 58.5449 74.0719 59.0528 74.2282 59.1505C74.4431 59.2677 74.5213 59.6975 74.5213 60.9282V62.5693L72.372 63.1163C63.7554 65.2847 54.4939 65.3238 46.1508 63.2335L44.5291 62.8428V61.0064C44.5291 59.7561 44.6073 59.17 44.744 59.17C44.8808 59.17 45.9555 58.7012 47.1473 58.1151C48.8277 57.3141 49.5897 56.7866 50.4494 55.9466C51.5045 54.8721 52.9308 52.4887 52.9308 51.7464C52.9308 51.258 53.1458 51.1212 53.7124 51.258C53.9859 51.3361 54.7284 51.4729 55.3732 51.5706ZM82.8253 62.7842C85.0332 63.7219 87.417 64.7963 88.1399 65.1675C90.5432 66.4178 92.5948 68.8598 93.6108 71.673L94.0602 72.9428L94.1188 84.9964L94.1774 97.0696H89.7616C86.3814 97.0696 85.3654 97.011 85.3654 96.8157C85.3654 96.6984 85.8929 91.58 86.5573 85.4458C87.202 79.3115 87.71 73.861 87.671 73.2945C87.5733 72.0442 86.8699 70.9111 85.7171 70.1687C84.916 69.6217 84.8769 69.6217 81.2231 69.5631L77.5498 69.5045V65.0112V60.5375L78.1946 60.7915C78.5268 60.9478 80.6174 61.8269 82.8253 62.7842ZM74.5799 67.5118L74.5213 69.4263L59.535 69.485L44.5291 69.524V67.6877V65.8708L46.0531 66.242C51.0551 67.4337 57.2294 67.9612 62.4658 67.59C65.9828 67.3555 70.3204 66.6913 72.7628 66.0271C74.7753 65.4801 74.6385 65.3629 74.5799 67.5118ZM84.3884 72.8451C84.6034 73.06 84.7792 73.4898 84.7792 73.8024C84.7792 74.0954 84.2517 79.3115 83.6069 85.3676C82.9621 91.4237 82.4345 96.5421 82.4345 96.718C82.4345 97.0501 81.2427 97.0696 60.2579 97.0696C48.0657 97.0696 38.0813 97.0305 38.0813 96.9915C38.0813 96.9524 37.5537 91.9512 36.909 85.8951C36.2642 79.8585 35.7366 74.5057 35.7366 74.0368C35.7366 73.5093 35.8539 73.0405 36.0688 72.8061C36.3619 72.4739 37.3779 72.4544 60.1993 72.4544C83.7437 72.4544 83.9977 72.4544 84.3884 72.8451Z" fill="#7A8BCA"/>
<path d="M58.7536 79.3505C55.6469 80.2296 53.947 83.5117 55.0216 86.6374C55.471 87.9658 57.0146 89.4701 58.3823 89.939C60.4534 90.6227 62.974 90.0171 64.3026 88.4933C66.2369 86.2858 66.276 83.2186 64.3612 81.0892C62.8958 79.4677 60.7465 78.8035 58.7536 79.3505ZM61.6453 82.5153C62.7395 83.2186 63.1498 84.6643 62.6027 85.8169C61.3522 88.4542 57.3468 87.3212 57.6789 84.4298C57.8938 82.5153 60.0627 81.4799 61.6453 82.5153Z" fill="#7A8BCA"/>
<path d="M58.7536 79.3505C55.6469 80.2296 53.947 83.5117 55.0216 86.6374C55.471 87.9658 57.0146 89.4701 58.3823 89.939C60.4534 90.6227 62.974 90.0171 64.3026 88.4933C66.2369 86.2858 66.276 83.2186 64.3612 81.0892C62.8958 79.4677 60.7465 78.8035 58.7536 79.3505ZM61.6453 82.5153C62.7395 83.2186 63.1498 84.6643 62.6027 85.8169C61.3522 88.4542 57.3468 87.3212 57.6789 84.4298C57.8938 82.5153 60.0627 81.4799 61.6453 82.5153Z" stroke="#7A8BCA"/>
</svg>
