<svg width="1024" height="999" viewBox="0 0 1024 999" fill="none" xmlns="http://www.w3.org/2000/svg">
<g clip-path="url(#clip0_1583_1753)">
<path d="M370.877 223.94H425.361V688.998C425.361 696.295 426.797 703.52 429.586 710.261C432.375 717.002 436.463 723.128 441.616 728.287C446.77 733.447 452.888 737.539 459.621 740.332C466.354 743.124 473.571 744.561 480.859 744.561H897.417V745.093C897.417 752.389 895.981 759.615 893.192 766.356C890.403 773.097 886.315 779.222 881.162 784.382C876.008 789.541 869.89 793.634 863.157 796.426C856.424 799.218 849.207 800.656 841.919 800.656H370.877C363.589 800.656 356.372 799.218 349.639 796.426C342.906 793.634 336.788 789.541 331.634 784.382C326.481 779.222 322.393 773.097 319.604 766.356C316.815 759.615 315.379 752.389 315.379 745.093V279.503C315.379 264.766 321.226 250.634 331.634 240.214C342.042 229.794 356.158 223.94 370.877 223.94Z" fill="#F2F2F2"/>
<path d="M112.595 962.989C111.63 963.034 110.675 962.78 109.859 962.263C109.044 961.746 108.406 960.99 108.034 960.098C107.661 959.206 107.572 958.222 107.777 957.277C107.982 956.332 108.473 955.474 109.182 954.818L109.504 953.533C109.462 953.43 109.419 953.328 109.376 953.225C108.404 950.927 106.776 948.968 104.696 947.593C102.616 946.219 100.176 945.491 97.6837 945.5C95.1913 945.509 92.7572 946.256 90.6872 947.646C88.6171 949.035 87.0034 951.007 86.0488 953.312C82.2335 962.511 77.3759 971.727 76.1798 981.454C75.653 985.754 75.8752 990.113 76.8365 994.336C67.8754 974.766 63.2222 953.495 63.1922 931.966C63.1903 926.563 63.4901 921.165 64.0902 915.796C64.5861 911.395 65.2742 907.025 66.1543 902.686C70.9573 879.144 81.2695 857.079 96.2441 838.303C103.492 834.343 109.353 828.255 113.038 820.858C114.373 818.199 115.317 815.361 115.839 812.431C115.022 812.538 112.757 800.072 113.373 799.308C112.234 797.577 110.195 796.716 108.95 795.027C102.762 786.626 94.235 788.093 89.7839 799.509C80.2751 804.314 80.183 812.282 86.0176 819.946C89.7295 824.821 90.2395 831.419 93.4965 836.639C93.1614 837.068 92.8129 837.484 92.4778 837.913C86.3526 845.799 81.0141 854.267 76.5388 863.195C77.6271 853.193 76.3281 843.075 72.7487 833.673C69.121 824.911 62.3213 817.532 56.3334 809.958C54.7497 807.923 52.5989 806.404 50.1531 805.593C47.7072 804.781 45.0761 804.714 42.5922 805.4C40.1083 806.085 37.8832 807.493 36.1981 809.444C34.513 811.396 33.4436 813.804 33.125 816.363C33.1128 816.475 33.1009 816.587 33.0892 816.698C33.9786 817.201 34.8491 817.734 35.701 818.298C36.7711 819.014 37.6003 820.036 38.0799 821.232C38.5596 822.428 38.6672 823.741 38.3889 824.999C38.1105 826.257 37.459 827.401 36.5198 828.282C35.5806 829.163 34.3976 829.74 33.1256 829.936L32.9953 829.956C33.3122 833.165 33.8723 836.346 34.6707 839.47C26.989 869.212 43.5733 880.045 67.2535 880.532C67.7762 880.8 68.2855 881.068 68.8083 881.323C64.3119 894.081 61.4914 907.369 60.4179 920.855C59.8102 928.811 59.8461 936.804 60.5252 944.754L60.4849 944.472C58.7692 935.631 54.0587 927.655 47.1489 921.888C36.8861 913.448 22.3867 910.34 11.3149 903.555C10.1383 902.799 8.77004 902.395 7.37172 902.392C5.9734 902.388 4.6033 902.785 3.42295 903.536C2.24261 904.287 1.30125 905.359 0.709975 906.628C0.118704 907.897 -0.097883 909.308 0.0858121 910.696L0.131155 910.992C1.78163 911.665 3.38866 912.441 4.94283 913.314C5.83224 913.816 6.70278 914.349 7.55461 914.913C8.62473 915.629 9.45398 916.652 9.9336 917.848C10.4132 919.043 10.5209 920.356 10.2425 921.614C9.96413 922.872 9.31261 924.017 8.37345 924.898C7.43428 925.779 6.25116 926.355 4.97918 926.551L4.84885 926.571C4.75506 926.585 4.6746 926.598 4.58097 926.612C7.40103 933.353 11.3591 939.558 16.2817 944.955C21.0849 970.919 41.7146 973.382 63.7821 965.821H63.7955C66.2167 976.355 69.7249 986.609 74.2634 996.416H111.658C111.792 996 111.912 995.571 112.033 995.155C108.572 995.373 105.097 995.166 101.686 994.538C104.46 991.129 107.235 987.694 110.009 984.286C110.071 984.222 110.129 984.155 110.183 984.084C111.591 982.34 113.011 980.609 114.419 978.865L114.42 978.863C114.495 973.515 113.88 968.18 112.595 962.989Z" fill="#F2F2F2"/>
<path d="M524.464 160.679C523.098 162.75 521.3 164.499 519.193 165.806C517.086 167.112 514.721 167.945 512.261 168.247C509.801 168.548 507.305 168.311 504.945 167.552C502.586 166.792 500.419 165.529 498.595 163.849L420.85 198.966L405.861 179.824L498.505 138.791C501.558 135.928 505.554 134.286 509.736 134.175C513.918 134.065 517.995 135.494 521.194 138.192C524.394 140.889 526.494 144.669 527.097 148.813C527.699 152.958 526.762 157.18 524.464 160.679Z" fill="#FFB8B8"/>
<path d="M190.815 182.576L183.104 226.322C182.745 228.363 182.815 230.457 183.311 232.469C183.808 234.481 184.719 236.367 185.986 238.005C187.253 239.644 188.849 240.999 190.67 241.984C192.491 242.969 194.498 243.562 196.562 243.724L327.583 254.039L481.593 185.032L463.199 150.072L329.504 192.459L190.815 182.576Z" fill="#20A7DB"/>
<path d="M497.46 151.225H968.502C999.153 151.225 1024 176.101 1024 206.788V672.378C1024 703.064 999.153 727.941 968.502 727.941H497.46C466.81 727.941 441.963 703.064 441.963 672.378V206.788C441.963 176.101 466.81 151.225 497.46 151.225Z" fill="#F2F2F2"/>
<path d="M968.502 162.651C974.291 162.651 980.024 163.792 985.372 166.011C990.721 168.229 995.581 171.48 999.674 175.578C1003.77 179.677 1007.02 184.542 1009.23 189.897C1011.45 195.252 1012.59 200.991 1012.59 206.787V672.378C1012.59 684.084 1007.94 695.31 999.674 703.587C991.407 711.864 980.194 716.514 968.502 716.514H667.872C639.704 716.514 611.812 710.96 585.788 700.168C559.764 689.376 536.118 673.557 516.201 653.616C496.283 633.675 480.483 610.001 469.704 583.947C458.924 557.893 453.376 529.968 453.376 501.767V206.787C453.376 200.991 454.517 195.252 456.732 189.897C458.948 184.542 462.195 179.677 466.288 175.578C470.382 171.48 475.242 168.229 480.59 166.011C485.939 163.792 491.672 162.651 497.461 162.651H968.502Z" fill="white"/>
<path d="M601.303 303.95H865.689C868.115 303.95 870.442 302.985 872.157 301.267C873.873 299.55 874.837 297.221 874.837 294.792C874.837 292.363 873.873 290.034 872.157 288.316C870.442 286.599 868.115 285.634 865.689 285.634H601.303C598.877 285.634 596.551 286.599 594.835 288.316C593.12 290.034 592.156 292.363 592.156 294.792C592.156 297.221 593.12 299.55 594.835 301.267C596.551 302.985 598.877 303.95 601.303 303.95Z" fill="#F2F2F2"/>
<path d="M601.303 499.242H865.689C868.115 499.242 870.442 498.277 872.157 496.56C873.873 494.842 874.837 492.513 874.837 490.084C874.837 487.655 873.873 485.326 872.157 483.608C870.442 481.891 868.115 480.926 865.689 480.926H601.303C598.877 480.926 596.551 481.891 594.835 483.608C593.12 485.326 592.156 487.655 592.156 490.084C592.156 492.513 593.12 494.842 594.835 496.56C596.551 498.277 598.877 499.242 601.303 499.242Z" fill="#F2F2F2"/>
<path d="M493.942 401.66H973.051C975.477 401.66 977.803 400.695 979.519 398.978C981.234 397.26 982.198 394.931 982.198 392.502C982.198 390.073 981.234 387.744 979.519 386.026C977.803 384.309 975.477 383.344 973.051 383.344H493.942C491.516 383.344 489.189 384.309 487.474 386.026C485.758 387.744 484.795 390.073 484.795 392.502C484.795 394.931 485.758 397.26 487.474 398.978C489.189 400.695 491.516 401.66 493.942 401.66Z" fill="#F2F2F2"/>
<path d="M207.369 375.391L255.097 477.193L71.495 458.576L109.821 360.848L207.369 375.391Z" fill="#FFB8B8"/>
<path d="M164.683 960.506L182.091 960.359L189.797 891.568L164.106 891.786L164.683 960.506Z" fill="#FFB8B8"/>
<path d="M220.443 988.219C220.458 990.285 219.655 992.273 218.208 993.747C216.761 995.22 214.79 996.059 212.727 996.079L178.116 996.368L172.057 984.072L169.832 996.431L156.772 996.55L160.07 952.47L164.614 952.168L183.146 950.889L189.125 950.488L189.23 962.959L217.032 981.839C218.074 982.547 218.928 983.498 219.522 984.609C220.116 985.72 220.432 986.959 220.443 988.219Z" fill="#2F2E41"/>
<path d="M357.329 960.585L373.926 955.323L361.103 887.303L336.608 895.067L357.329 960.585Z" fill="#FFB8B8"/>
<path d="M418.76 970.673C419.381 972.643 419.196 974.78 418.246 976.614C417.295 978.448 415.657 979.829 413.691 980.456L380.693 990.913L371.293 980.942L372.792 993.41L360.344 997.365L350.561 954.261L354.815 952.635L372.154 945.961L377.751 943.819L381.511 955.71L413.628 965.578C414.831 965.948 415.927 966.605 416.82 967.493C417.714 968.38 418.38 969.471 418.76 970.673Z" fill="#2F2E41"/>
<path d="M79.8568 429.948L246.796 460.572C246.796 460.572 273.572 480.625 266.409 487.807C259.247 494.988 258.136 493.876 262.841 498.587C267.547 503.299 277.722 509.597 277.823 513.719C277.923 517.842 352.628 702.746 352.628 702.746C352.628 702.746 344.327 698.591 350.553 704.824C356.778 711.057 356.778 716.207 356.778 716.207L385.83 912.582L338.648 915.363L292.449 736.331L189.399 569.078C189.399 569.078 179.174 718.225 178.745 728.145C178.316 738.065 172.091 725.6 178.316 738.065C184.542 750.531 188.692 742.22 184.542 750.531C180.391 758.841 199.492 928.028 199.492 928.028H156.427L64.0628 577.351C64.0628 577.351 31.2009 477.096 79.8568 429.948Z" fill="#2F2E41"/>
<path d="M129.035 149.45L195.906 142.493L213.231 165.013L233.414 175.775C241.956 180.329 249.006 187.251 253.722 195.711C258.438 204.171 260.62 213.812 260.007 223.481L236.42 360.849C236.42 360.849 256.343 405.764 242.645 416.943C228.947 428.122 253.236 455.809 223.969 441.874C194.702 427.939 68.3339 443.952 68.3339 443.952L95.3107 367.081L75.1582 291.546L72.9402 228.21C72.5257 216.375 76.0338 204.735 82.9176 195.104C89.8014 185.474 99.6742 178.394 110.997 174.968L113.815 174.116L129.035 149.45Z" fill="#20A7DB"/>
<path d="M36.9728 98.1244C36.5348 116.995 43.5788 135.267 53.6981 151.317C56.7048 141.947 62.11 133.42 67.7471 125.291C64.9056 142.876 67.9324 160.909 76.359 176.598C76.6561 176.811 76.9638 177.008 77.2808 177.19C85.5291 182.157 95.9865 184.169 104.909 180.582C86.4732 160.685 84.1271 127.72 99.5837 105.403C103.96 99.0706 109.619 93.47 112.33 86.2635C116.609 74.7651 112.496 62.105 109.9 50.1168C107.474 38.9593 107.049 25.6818 114.526 17.5048C113.727 16.3621 112.639 15.4525 111.374 14.8692C110.109 14.2859 108.711 14.0499 107.325 14.1854C102.715 14.8373 99.3594 18.8488 97.2223 22.9805C95.0853 27.112 93.6758 31.6911 90.6975 35.2597C85.1821 41.9391 75.7894 43.5182 67.874 47.0384C48.7046 55.5869 37.4323 77.1265 36.9728 98.1244Z" fill="#2F2E41"/>
<path d="M530.842 996.528C530.842 996.853 530.779 997.175 530.656 997.475C530.532 997.775 530.35 998.048 530.12 998.278C529.891 998.508 529.618 998.69 529.318 998.814C529.018 998.938 528.697 999.001 528.372 999H2.76029C2.10536 999 1.47731 998.74 1.01421 998.276C0.551105 997.812 0.290875 997.183 0.290875 996.528C0.290875 995.872 0.551105 995.243 1.01421 994.779C1.47731 994.316 2.10536 994.055 2.76029 994.055H528.372C528.697 994.054 529.018 994.118 529.318 994.242C529.618 994.365 529.891 994.548 530.12 994.777C530.35 995.007 530.532 995.28 530.655 995.58C530.779 995.881 530.842 996.203 530.842 996.528Z" fill="#CCCCCC"/>
<path d="M32.8344 535.491C22.5198 535.491 14.1581 527.12 14.1581 516.793C14.1581 506.466 22.5198 498.095 32.8344 498.095C43.149 498.095 51.5106 506.466 51.5106 516.793C51.5106 527.12 43.149 535.491 32.8344 535.491Z" fill="#20A7DB"/>
<path d="M198.331 87.335C197.236 83.4965 204.786 106.961 201.143 107.384C184.549 109.29 161.769 119.212 150.212 123.841C149.691 123.78 149.171 123.72 148.665 123.644C147.426 123.508 146.216 123.312 145.022 123.085C118.11 117.987 107.762 76.5986 107.762 76.2205C107.762 74.3599 112.222 23.2568 119.248 22.5005C121.094 22.3 122.949 22.199 124.805 22.198H142.241C145.849 21.4196 149.506 20.8889 153.186 20.6096H153.217C188.319 17.9321 215.996 39.352 213.409 65.416C213.393 65.4462 213.363 65.4765 213.348 65.5068C212.597 66.6262 211.939 67.6851 211.357 68.6986C210.791 69.6516 210.316 70.5591 209.903 71.4214C206.704 78.0773 214.928 86.4526 209.475 88.0158C202.222 90.095 228.55 158.432 199.842 158.432C213.806 162.407 201.353 97.924 198.331 87.335Z" fill="#2F2E41"/>
<path d="M166.996 127.432C144.197 127.432 125.714 108.928 125.714 86.1019C125.714 63.2757 144.197 44.7715 166.996 44.7715C189.796 44.7715 208.278 63.2757 208.278 86.1019C208.278 108.928 189.796 127.432 166.996 127.432Z" fill="#FFB8B8"/>
<path d="M213.409 67.6696C212.72 68.0326 212.046 68.3654 211.357 68.6982C210.638 69.0461 209.918 69.3941 209.199 69.7117C195.375 75.9895 184.124 76.6853 177.297 67.6696C177.114 62.9257 176.05 58.2575 174.159 53.9039C174.492 58.7691 173.212 63.6084 170.515 67.6696H156.768C142.608 77.0786 135.337 78.0618 145.165 108.951C147.905 117.559 158.8 167.644 154.514 175.072C153.274 174.936 140.083 120.076 138.889 119.849C111.977 114.752 94.8775 70.3622 97.0666 67.8511C97.0559 60.7103 98.6958 53.6638 101.858 47.2632C105.859 39.154 112.095 32.3614 119.83 27.6888C124.44 25.4506 129.247 23.6428 134.189 22.2884C134.311 22.2581 134.419 22.2278 134.541 22.1976C136.057 21.7891 137.603 21.411 139.149 21.0933C142.343 20.4181 145.573 19.9282 148.824 19.626C149.053 19.6109 149.283 19.5957 149.497 19.5957C150.795 19.5987 152.069 19.9487 153.186 20.6093C153.202 20.6093 153.202 20.6243 153.217 20.6243C154.016 21.0916 154.713 21.7139 155.268 22.4547C156.246 23.7011 156.775 25.2416 156.768 26.8264H172.077C172.643 26.8264 173.209 26.8415 173.776 26.8718C183.993 27.2213 193.712 31.3754 201.03 38.521C208.349 45.6667 212.742 55.2895 213.347 65.5064C213.393 66.2325 213.409 66.9434 213.409 67.6696Z" fill="#2F2E41"/>
<path d="M123.148 54.4575C108.128 54.4575 95.9513 42.2667 95.9513 27.2287C95.9513 12.1907 108.128 0 123.148 0C138.168 0 150.345 12.1907 150.345 27.2287C150.345 42.2667 138.168 54.4575 123.148 54.4575Z" fill="#2F2E41"/>
<path d="M32.6246 524.503C31.2973 522.408 30.4405 520.048 30.1134 517.589C29.7864 515.129 29.9969 512.628 30.7304 510.258C31.4638 507.888 32.7027 505.705 34.3615 503.862C36.0202 502.018 38.0592 500.557 40.3374 499.58L40.2027 414.189L63.785 408.344L63.2042 509.766C64.5617 513.728 64.4206 518.05 62.8076 521.915C61.1946 525.779 58.2218 528.917 54.4525 530.733C50.6831 532.55 46.3792 532.919 42.3562 531.771C38.3332 530.622 34.8706 528.037 32.6246 524.503Z" fill="#FFB8B8"/>
<path d="M149.405 210.827L112.708 185.857C110.996 184.693 109.059 183.899 107.023 183.528C104.986 183.156 102.895 183.215 100.883 183.701C98.8702 184.187 96.9816 185.089 95.3379 186.348C93.6942 187.608 92.3317 189.198 91.338 191.016L28.2462 306.443L28.0051 475.372L67.3952 472.9L83.5652 333.434L149.405 210.827Z" fill="#20A7DB"/>
<path d="M431.246 593.933H823.447C831.978 593.933 840.159 597.326 846.191 603.365C852.223 609.404 855.612 617.595 855.612 626.136C855.612 634.676 852.223 642.867 846.191 648.906C840.159 654.945 831.978 658.338 823.447 658.338H431.246C422.715 658.338 414.534 654.945 408.502 648.906C402.47 642.867 399.081 634.676 399.081 626.136C399.081 617.595 402.47 609.404 408.502 603.365C414.534 597.326 422.715 593.933 431.246 593.933Z" fill="white"/>
<path d="M431.246 660.416H823.447C832.528 660.416 841.237 656.804 847.658 650.375C854.079 643.946 857.687 635.227 857.687 626.136C857.687 617.044 854.079 608.325 847.658 601.896C841.237 595.467 832.528 591.855 823.447 591.855H431.246C422.165 591.855 413.456 595.467 407.035 601.896C400.614 608.325 397.006 617.044 397.006 626.136C397.006 635.227 400.614 643.946 407.035 650.375C413.456 656.804 422.165 660.416 431.246 660.416ZM823.447 596.011C831.427 596.011 839.081 599.184 844.724 604.834C850.366 610.484 853.537 618.146 853.537 626.136C853.537 634.125 850.366 641.787 844.724 647.437C839.081 653.086 831.427 656.26 823.447 656.26H431.246C423.266 656.26 415.612 653.086 409.97 647.437C404.327 641.787 401.157 634.125 401.157 626.136C401.157 618.146 404.327 610.484 409.97 604.834C415.612 599.184 423.266 596.011 431.246 596.011H823.447Z" fill="#20A7DB"/>
<path d="M408.119 734.466H581.199C583.625 734.466 585.952 733.502 587.667 731.784C589.383 730.067 590.346 727.737 590.346 725.308C590.346 722.88 589.383 720.55 587.667 718.833C585.952 717.115 583.625 716.15 581.199 716.15H408.119C405.693 716.15 403.367 717.115 401.651 718.833C399.936 720.55 398.972 722.88 398.972 725.308C398.972 727.737 399.936 730.067 401.651 731.784C403.367 733.502 405.693 734.466 408.119 734.466Z" fill="#20A7DB"/>
</g>
<defs>
<clipPath id="clip0_1583_1753">
<rect width="1024" height="999" fill="white" transform="matrix(-1 0 0 1 1024 0)"/>
</clipPath>
</defs>
</svg>
