<svg width="1024" height="736" viewBox="0 0 1024 736" fill="none" xmlns="http://www.w3.org/2000/svg">
<g clip-path="url(#clip0_1583_1672)">
<path d="M27.1134 734.857C27.1134 736.023 27.8345 736.959 28.7326 736.959H1021.02C1021.92 736.959 1022.64 736.023 1022.64 734.857C1022.64 733.69 1021.92 732.754 1021.02 732.754H28.7326C27.8345 732.754 27.1134 733.69 27.1134 734.857Z" fill="#3F3D58"/>
<path d="M345.294 129.825H26.6093C14.456 129.825 4.56433 119.92 4.56433 107.749C4.56433 95.5781 14.456 85.6724 26.6093 85.6724H345.294C357.447 85.6724 367.339 95.5781 367.339 107.749C367.339 119.92 357.447 129.825 345.294 129.825ZM26.6093 88.4012C15.9547 88.4012 7.2893 97.079 7.2893 107.749C7.2893 118.419 15.9547 127.096 26.6093 127.096H345.294C355.949 127.096 364.614 118.419 364.614 107.749C364.614 97.079 355.949 88.4012 345.294 88.4012H26.6093Z" fill="#E2E3E4"/>
<path d="M345.293 388.18H26.6092C14.8238 388.18 5.24554 378.588 5.24554 366.785C5.24554 354.983 14.8238 345.391 26.6092 345.391H345.293C357.079 345.391 366.657 354.983 366.657 366.785C366.657 378.588 357.079 388.18 345.293 388.18Z" fill="#20A7DB"/>
<path d="M240.859 42.7885H21.3637C9.57824 42.7885 0 33.1966 0 21.3943C0 9.59194 9.57824 0 21.3637 0H240.859C252.645 0 262.223 9.59194 262.223 21.3943C262.223 33.1966 252.645 42.7885 240.859 42.7885Z" fill="#E2E3E4"/>
<path d="M345.294 216.167H26.6093C14.456 216.167 4.56433 206.261 4.56433 194.09C4.56433 181.919 14.456 172.014 26.6093 172.014H345.294C357.447 172.014 367.339 181.919 367.339 194.09C367.339 206.261 357.447 216.167 345.294 216.167ZM26.6093 174.743C15.9547 174.743 7.2893 183.42 7.2893 194.09C7.2893 204.76 15.9547 213.438 26.6093 213.438H345.294C355.949 213.438 364.614 204.76 364.614 194.09C364.614 183.42 355.949 174.743 345.294 174.743H26.6093Z" fill="#E2E3E4"/>
<path d="M345.294 302.521H26.6093C14.456 302.521 4.56433 292.615 4.56433 280.445C4.56433 268.274 14.456 258.368 26.6093 258.368H345.294C357.447 258.368 367.339 268.274 367.339 280.445C367.339 292.615 357.447 302.521 345.294 302.521ZM26.6093 261.097C15.9547 261.097 7.2893 269.775 7.2893 280.445C7.2893 291.114 15.9547 299.792 26.6093 299.792H345.294C355.949 299.792 364.614 291.114 364.614 280.445C364.614 269.775 355.949 261.097 345.294 261.097H26.6093Z" fill="#E2E3E4"/>
<path d="M15.6549 69.8179H99.1751C101.164 69.8179 102.786 71.4278 102.786 73.4333C102.786 75.4252 101.164 77.0487 99.1751 77.0487H15.6549C13.6657 77.0487 12.0443 75.4388 12.0443 73.4333C12.0443 71.4414 13.6657 69.8179 15.6549 69.8179Z" fill="#E2E3E4"/>
<path d="M15.6549 158.206H99.1751C101.164 158.206 102.786 159.815 102.786 161.807C102.786 163.799 101.164 165.423 99.1751 165.423H15.6549C13.6657 165.423 12.0443 163.813 12.0443 161.821C12.0443 159.829 13.6657 158.206 15.6549 158.206Z" fill="#E2E3E4"/>
<path d="M15.6549 246.607H99.1751C101.164 246.607 102.786 248.217 102.786 250.222C102.786 252.214 101.164 253.824 99.1751 253.824H15.6549C13.6657 253.824 12.0443 252.214 12.0443 250.209C12.0443 248.217 13.6657 246.607 15.6549 246.607Z" fill="#E2E3E4"/>
<path d="M609.138 180.459L578.673 190.502V146.581H606.318L609.138 180.459Z" fill="#FFB8B8"/>
<path d="M582.447 158.738C599.212 158.738 612.803 145.128 612.803 128.338C612.803 111.549 599.212 97.939 582.447 97.939C565.682 97.939 552.091 111.549 552.091 128.338C552.091 145.128 565.682 158.738 582.447 158.738Z" fill="#FFB8B8"/>
<path d="M590.785 125.323C585.703 125.173 582.365 120.029 580.39 115.335C578.414 110.642 576.384 105.252 571.67 103.315C567.814 101.732 561.015 112.443 557.977 109.591C554.802 106.617 557.895 91.3487 561.261 88.6062C564.626 85.8637 569.231 85.3315 573.564 85.1269C584.137 84.6357 594.777 85.4953 605.146 87.6647C611.563 89.0019 618.158 91.0212 622.79 95.6603C628.649 101.555 630.147 110.437 630.57 118.746C631.006 127.247 630.515 136.143 626.387 143.579C622.259 151.015 613.621 156.5 605.337 154.604C604.506 150.101 605.35 145.476 605.677 140.891C605.991 136.32 605.664 131.381 602.871 127.738C600.091 124.095 594.123 122.649 590.881 125.882" fill="#2F2E43"/>
<path d="M628.131 135.856C631.169 133.632 634.807 131.763 638.54 132.227C642.573 132.718 645.993 136.047 647.029 139.991C648.064 143.934 646.906 148.273 644.399 151.493C641.906 154.713 638.186 156.841 634.262 157.906C631.987 158.52 629.494 158.779 627.327 157.851C624.139 156.473 622.409 152.393 623.662 149.146" fill="#2F2E43"/>
<path d="M511.966 421.882C509.936 431.869 513.655 440.997 520.25 442.266C526.844 443.535 533.834 436.454 535.85 426.466C536.709 422.482 536.572 418.361 535.455 414.432L560.566 257.864L529.16 251.942L517.034 410.898C514.459 414.118 512.729 417.884 511.966 421.895V421.882Z" fill="#FFB8B8"/>
<path d="M578.346 170.349H556.914C541.763 172.655 537.649 180.746 534.202 195.7C528.942 218.513 522.225 248.886 523.561 249.336C525.7 250.045 562.187 267.237 580.785 263.308L578.346 170.349Z" fill="#E2E3E4"/>
<path d="M599.069 669.061H570.539V709.598H599.069V669.061Z" fill="#FFB8B8"/>
<path d="M542.758 734.132C539.761 734.132 537.09 734.063 535.074 733.872C527.498 733.176 520.263 727.569 516.626 724.294C514.991 722.82 514.473 720.474 515.318 718.454C515.931 717.008 517.143 715.916 518.656 715.493L538.684 709.763L571.111 687.85L571.479 688.505C571.615 688.751 574.804 694.495 575.866 698.37C576.275 699.843 576.166 701.071 575.553 702.027C575.131 702.681 574.531 703.063 574.054 703.282C574.64 703.896 576.479 705.151 582.147 706.052C590.418 707.361 592.162 698.779 592.23 698.424L592.284 698.138L592.529 697.974C596.467 695.436 598.892 694.277 599.723 694.522C600.241 694.672 601.113 694.945 603.47 718.318C603.702 719.055 605.35 724.431 604.233 729.574C603.021 735.169 578.605 733.245 573.714 732.808C573.577 732.822 555.293 734.132 542.772 734.132H542.758Z" fill="#2F2E43"/>
<path d="M680.309 637.212L656.101 652.332L677.522 686.728L701.73 671.608L680.309 637.212Z" fill="#FFB8B8"/>
<path d="M648.16 728.577C644.808 728.577 641.729 728.168 639.535 727.786C637.382 727.404 635.693 725.685 635.339 723.529C635.093 721.974 635.543 720.405 636.606 719.245L650.571 703.772L666.512 667.997L667.166 668.352C667.411 668.488 673.147 671.667 676.104 674.396C677.235 675.433 677.794 676.538 677.766 677.671C677.753 678.462 677.453 679.09 677.153 679.54C677.971 679.758 680.191 679.84 685.478 677.602C693.19 674.341 690.138 666.128 690.001 665.787L689.892 665.514L690.015 665.254C692.018 661.011 693.448 658.746 694.293 658.514C694.825 658.364 695.697 658.132 710.043 676.729C710.629 677.22 714.867 680.918 716.638 685.871C718.559 691.26 696.827 702.571 692.454 704.782C692.318 704.891 669.578 721.442 660.231 726.149C656.525 728.018 652.138 728.591 648.146 728.591L648.16 728.577Z" fill="#2F2E43"/>
<path d="M620.079 330.069H540.197L532.948 404.485L564.667 679.444H605.446L589.137 520.639L655.285 664.013L691.527 638.607L639.875 504.757C639.875 504.757 658.323 388.153 643.827 359.104C629.33 330.069 620.079 330.069 620.079 330.069Z" fill="#2F2E43"/>
<path d="M659.822 334.599H532.948L571.016 170.349H626.292L659.822 334.599Z" fill="#E2E3E4"/>
<path d="M671.24 421.882C673.27 431.869 669.551 440.997 662.956 442.266C656.362 443.535 649.372 436.454 647.356 426.466C646.497 422.482 646.634 418.361 647.751 414.432L622.64 257.864L654.046 251.942L666.172 410.898C668.747 414.118 670.477 417.884 671.24 421.895V421.882Z" fill="#FFB8B8"/>
<path d="M604.86 170.349H626.292C641.443 172.655 645.557 180.746 649.004 195.7C654.263 218.513 660.981 248.886 659.645 249.336C657.506 250.045 621.019 267.237 602.421 263.308L604.86 170.349Z" fill="#E2E3E4"/>
</g>
<defs>
<clipPath id="clip0_1583_1672">
<rect width="1024" height="736" fill="white"/>
</clipPath>
</defs>
</svg>
