<svg width="1024" height="680" viewBox="0 0 1024 680" fill="none" xmlns="http://www.w3.org/2000/svg">
<g clip-path="url(#clip0_1583_1698)">
<path d="M367.309 391.346C402.402 329.662 469.342 282.298 540.203 286.861C487.934 343.658 457.454 417.099 454.157 494.19C452.994 523.926 454.798 557.12 435.04 579.385C422.746 593.24 403.954 599.949 385.478 601.357C367.001 602.764 348.528 599.428 330.298 596.107L325.876 597.463C324.192 526.528 332.216 453.031 367.309 391.346Z" fill="#F0F0F0"/>
<path d="M540.309 288.346C487.908 313.552 443.226 355.65 415.797 406.992C409.867 418.092 404.818 429.868 402.616 442.318C400.413 454.775 401.952 466.632 406.21 478.463C410.102 489.278 415.337 499.891 416.531 511.464C417.789 523.663 413.297 535.068 405.212 544.121C395.319 555.196 382.034 562.059 368.808 568.32C354.124 575.271 338.761 582.258 328.361 595.232C327.1 596.804 324.733 594.758 325.991 593.188C344.087 570.617 375.062 566.374 396.541 548.192C406.563 539.708 414.088 528.154 413.613 514.616C413.198 502.778 407.809 491.83 403.773 480.912C399.535 469.449 397.422 457.923 398.942 445.702C400.496 433.2 405.095 421.202 410.715 409.999C423.389 384.734 440.735 361.539 460.605 341.489C483.442 318.441 510.055 299.466 539.295 285.386C541.105 284.516 542.107 287.481 540.309 288.346Z" fill="white"/>
<path d="M423.832 389.834C415.799 383.964 410.115 375.433 407.796 365.762C405.476 356.092 406.673 345.913 411.171 337.043C412.088 335.251 414.917 336.59 413.999 338.384C409.795 346.636 408.682 356.118 410.86 365.118C413.038 374.119 418.364 382.045 425.877 387.466C427.508 388.646 425.454 391.007 423.832 389.834Z" fill="white"/>
<path d="M403.513 473.238C423.643 470.299 441.924 459.887 454.712 444.078C455.978 442.51 458.345 444.556 457.081 446.121C443.743 462.548 424.696 473.345 403.742 476.357C401.745 476.643 401.527 473.523 403.513 473.238Z" fill="white"/>
<path d="M484.988 322.289C487.622 325.207 490.941 327.426 494.646 328.746C498.351 330.065 502.326 330.445 506.213 329.85C508.206 329.54 508.422 332.66 506.443 332.969C502.144 333.606 497.755 333.182 493.658 331.732C489.562 330.283 485.883 327.854 482.943 324.656C482.64 324.378 482.455 323.995 482.425 323.586C482.395 323.176 482.522 322.77 482.78 322.451C483.053 322.139 483.437 321.947 483.851 321.916C484.264 321.886 484.672 322.02 484.988 322.289Z" fill="white"/>
<path d="M681.196 481.453C679.957 481.683 678.719 481.912 677.468 482.166C660.83 485.337 644.476 489.854 628.569 495.672C627.332 496.103 626.085 496.557 624.863 497.022C586.689 511.447 551.527 532.829 521.165 560.08C509.093 570.935 497.865 582.692 487.578 595.249C473.373 612.592 459.351 632.525 440.788 643.833C438.865 645.035 436.869 646.116 434.811 647.071L327.875 602.749C327.682 602.526 327.479 602.327 327.285 602.104L322.934 600.53C323.42 599.845 323.938 599.145 324.423 598.461C324.703 598.062 325.006 597.674 325.286 597.276C325.48 597.013 325.676 596.751 325.836 596.503C325.9 596.416 325.966 596.329 326.02 596.265C326.18 596.017 326.355 595.804 326.505 595.581C329.39 591.662 332.307 587.756 335.257 583.864C335.268 583.84 335.268 583.84 335.302 583.825C357.855 554.227 383.079 526.249 411.751 502.987C412.614 502.288 413.486 501.563 414.397 500.884C427.38 490.47 441.192 481.134 455.696 472.969C463.653 468.523 471.829 464.483 480.195 460.864C501.828 451.553 524.792 445.701 548.245 443.522C594.998 439.183 642.62 449.835 678.479 479.184C679.395 479.935 680.29 480.677 681.196 481.453Z" fill="#F0F0F0"/>
<path d="M680.393 482.71C623.366 471.311 562.325 478.043 509.49 502.535C498.067 507.83 486.94 514.195 477.68 522.811C468.415 531.431 462.5 541.824 458.771 553.832C455.362 564.81 453.148 576.433 447.128 586.391C440.782 596.888 430.323 603.292 418.414 605.656C403.841 608.548 389.099 606.035 374.767 603.077C358.854 599.793 342.377 596.13 326.256 600.231C324.303 600.728 323.646 597.67 325.596 597.174C353.644 590.038 380.932 605.285 409.037 603.69C422.152 602.946 435.121 598.248 442.899 587.153C449.7 577.451 451.994 565.467 455.35 554.322C458.873 542.62 464.13 532.146 472.707 523.302C481.481 514.255 492.382 507.442 503.619 501.878C528.962 489.331 556.787 481.246 584.734 477.191C616.854 472.527 649.537 473.388 681.367 479.737C683.337 480.131 682.35 483.101 680.393 482.71Z" fill="white"/>
<path d="M526.243 493.668C523.366 484.149 523.968 473.918 527.943 464.801C531.918 455.685 539.006 448.277 547.943 443.901C549.754 443.022 551.206 445.793 549.393 446.673C541.064 450.733 534.461 457.634 530.777 466.131C527.093 474.627 526.57 484.16 529.302 493.009C529.894 494.932 526.831 495.581 526.243 493.668Z" fill="white"/>
<path d="M459.766 548.039C477.609 557.802 498.479 560.487 518.215 555.557C520.17 555.067 520.828 558.125 518.876 558.614C498.328 563.705 476.615 560.868 458.07 550.667C456.303 549.693 458.008 547.07 459.766 548.039Z" fill="white"/>
<path d="M615.77 476.53C616.116 480.445 617.429 484.213 619.591 487.495C621.754 490.778 624.699 493.473 628.162 495.337C629.94 496.287 628.232 498.909 626.466 497.965C622.65 495.887 619.401 492.908 617.003 489.286C614.605 485.665 613.132 481.511 612.711 477.189C612.637 476.785 612.72 476.368 612.943 476.023C613.166 475.678 613.512 475.431 613.91 475.331C614.316 475.246 614.739 475.324 615.087 475.548C615.435 475.773 615.681 476.125 615.77 476.53Z" fill="white"/>
<path d="M477.489 554.576C462.513 482.219 443.793 458.094 443.793 458.094L436.641 452.553L428.041 445.877L428.082 445.019L426.042 444.326L425.563 443.954L424.778 443.352L424.652 443.487L424.385 443.763L385.467 430.545L336.093 413.786L313.23 384.092C309.507 379.255 304.713 375.346 299.224 372.671C293.736 369.996 287.702 368.628 281.595 368.673L208.578 369.213C198.705 369.286 189.216 373.047 181.978 379.756L133.984 424.239L59.2014 459.928L59.0752 459.802L58.2899 460.362L46.7353 465.883L47.2121 468.363L40.0605 473.52C40.0605 473.52 21.3402 495.967 6.36396 563.294C2.55417 580.425 0.678852 617.174 0.00196324 662.459C-0.0320368 664.749 0.390058 667.024 1.2437 669.15C2.09733 671.277 3.36549 673.212 4.97442 674.844C6.58335 676.477 8.50096 677.773 10.6157 678.658C12.7305 679.543 15.0003 679.999 17.2931 680H416.724L466.578 680C468.869 679.999 471.137 679.543 473.251 678.659C475.364 677.775 477.281 676.48 478.889 674.85C480.498 673.22 481.767 671.286 482.621 669.162C483.476 667.038 483.9 664.766 483.869 662.476C483.208 613.2 481.334 573.154 477.489 554.576Z" fill="#3F3D56"/>
<path d="M528.738 63.1016C513.198 63.1016 498.294 69.2702 487.305 80.2504C476.317 91.2306 470.143 106.123 470.143 121.651C470.143 137.18 476.317 152.072 487.305 163.052C498.294 174.032 513.198 180.201 528.738 180.201H965.406C980.946 180.201 995.849 174.032 1006.84 163.052C1017.83 152.072 1024 137.18 1024 121.651C1024 106.123 1017.83 91.2306 1006.84 80.2504C995.849 69.2702 980.946 63.1016 965.406 63.1016H528.738Z" fill="#E5E5E5"/>
<path d="M528.738 74.9507C516.343 74.9507 504.455 79.8709 495.69 88.6289C486.926 97.3869 482.002 109.265 482.002 121.651C482.002 134.037 486.926 145.915 495.69 154.673C504.455 163.431 516.343 168.351 528.738 168.351H965.406C977.801 168.351 989.688 163.431 998.453 154.673C1007.22 145.915 1012.14 134.037 1012.14 121.651C1012.14 109.265 1007.22 97.3869 998.453 88.6289C989.688 79.8709 977.801 74.9507 965.406 74.9507H528.738Z" fill="white"/>
<path d="M256.553 341.263C309.385 341.263 352.214 298.467 352.214 245.675C352.214 192.884 309.385 150.088 256.553 150.088C203.722 150.088 160.893 192.884 160.893 245.675C160.893 298.467 203.722 341.263 256.553 341.263Z" fill="#FFB8B8"/>
<path d="M232.082 336.583C231.673 335.683 231.265 334.781 230.859 333.875C231.016 333.881 231.171 333.903 231.327 333.907L232.082 336.583Z" fill="#2F2E41"/>
<path d="M158.233 154.435C163.071 150.578 168.726 147.029 174.912 147.229C181.097 147.428 187.37 153.011 186.089 159.061C197.451 138.959 215.536 123.498 237.169 115.392C258.803 107.286 282.602 107.054 304.39 114.735C319.765 120.155 334.841 130.998 338.373 146.902C339.28 150.985 339.474 155.461 342.025 158.776C345.242 162.956 351.396 163.901 356.463 162.431C356.514 162.416 356.564 162.402 356.615 162.386C357.471 162.094 358.395 162.066 359.268 162.304C360.14 162.542 360.921 163.037 361.509 163.724C362.097 164.41 362.466 165.257 362.567 166.156C362.668 167.054 362.497 167.962 362.076 168.762L357.726 176.869C363.21 178.09 368.908 177.969 374.334 176.516C375.236 176.28 376.188 176.328 377.061 176.654C377.934 176.98 378.685 177.568 379.21 178.337C379.735 179.106 380.01 180.019 379.995 180.95C379.981 181.881 379.679 182.785 379.13 183.538C364.786 203.217 340.822 215.924 316.367 215.775C298.986 215.669 281.426 209.683 264.51 213.677C257.966 215.222 251.851 218.211 246.614 222.426C241.377 226.64 237.151 231.973 234.245 238.033C231.34 244.092 229.829 250.725 229.823 257.444C229.818 264.163 231.318 270.798 234.213 276.862C229.017 271.182 218.971 272.527 213.655 278.096C208.34 283.665 206.964 291.976 207.499 299.653C208.318 311.395 212.922 322.459 217.776 333.227C177.083 331.947 138.594 303.424 125.639 264.845C112.629 226.104 126.264 179.918 158.233 154.435Z" fill="#2F2E41"/>
<path opacity="0.2" d="M94.1545 532.73L120.985 678.599L137.084 680L94.1545 532.73Z" fill="black"/>
<path opacity="0.2" d="M389.699 521.729L362.868 678.494L346.769 680L389.699 521.729Z" fill="black"/>
<path d="M181.117 105.343C175.973 107.489 170.605 105.137 168.354 99.7499C166.068 94.2803 168.203 88.728 173.43 86.5471C178.657 84.3661 183.929 86.7242 186.252 92.2819C188.539 97.7563 186.428 103.127 181.117 105.343ZM171.263 75.7813L167.172 77.488C166.15 77.9093 165.008 77.932 163.97 77.5517C162.932 77.1713 162.075 76.4156 161.568 75.434L161.366 75.0386C156.964 67.1073 156.46 57.4678 159.876 46.4032C163.04 36.4776 164.354 29.497 161.711 23.1729C158.655 15.8611 152.131 13.5707 143.811 16.8887C140.584 18.2351 139.557 18.2136 137.017 20.7309C136.465 21.2852 135.806 21.7226 135.081 22.0171C134.356 22.3115 133.579 22.4571 132.796 22.445C132.039 22.4361 131.292 22.275 130.599 21.9714C129.906 21.6677 129.281 21.2277 128.762 20.6776C127.762 19.6175 127.202 18.2176 127.194 16.7607C127.187 15.3037 127.733 13.8982 128.723 12.8281C132.991 8.36323 138.139 4.83096 143.843 2.45417C161.72 -5.00486 170.719 6.00733 174.837 15.8622C178.865 25.5014 176.599 34.445 172.959 46.0278C169.908 55.6524 170.085 62.7841 173.551 69.8752C173.801 70.4113 173.94 70.9924 173.96 71.5836C173.98 72.1747 173.88 72.7639 173.666 73.3155C173.453 73.8671 173.13 74.3699 172.717 74.7936C172.303 75.2173 171.809 75.5533 171.263 75.7813Z" fill="#20A7DB"/>
<path d="M625.192 149.576H538.312C538.036 149.578 537.762 149.525 537.506 149.421C537.251 149.317 537.018 149.163 536.823 148.968C536.627 148.774 536.471 148.543 536.365 148.288C536.259 148.034 536.205 147.76 536.205 147.485C536.205 147.209 536.259 146.936 536.365 146.681C536.471 146.426 536.627 146.195 536.823 146.001C537.018 145.806 537.251 145.652 537.506 145.548C537.762 145.444 538.036 145.391 538.312 145.393H625.192C625.745 145.397 626.273 145.619 626.663 146.011C627.052 146.402 627.271 146.932 627.271 147.485C627.271 148.037 627.052 148.567 626.663 148.958C626.273 149.35 625.745 149.572 625.192 149.576Z" fill="#20A7DB"/>
<path d="M735.405 150.273H648.525C648.249 150.275 647.975 150.222 647.72 150.118C647.464 150.014 647.232 149.86 647.036 149.666C646.84 149.471 646.685 149.24 646.578 148.985C646.472 148.731 646.418 148.458 646.418 148.182C646.418 147.906 646.472 147.633 646.578 147.378C646.685 147.123 646.84 146.892 647.036 146.698C647.232 146.503 647.464 146.35 647.72 146.245C647.975 146.141 648.249 146.089 648.525 146.09H735.405C735.681 146.089 735.955 146.141 736.211 146.245C736.466 146.35 736.699 146.503 736.894 146.698C737.09 146.892 737.246 147.123 737.352 147.378C737.458 147.633 737.512 147.906 737.512 148.182C737.512 148.458 737.458 148.731 737.352 148.985C737.246 149.24 737.09 149.471 736.894 149.666C736.699 149.86 736.466 150.014 736.211 150.118C735.955 150.222 735.681 150.275 735.405 150.273Z" fill="#20A7DB"/>
<path d="M845.619 150.97H758.738C758.185 150.966 757.657 150.744 757.267 150.352C756.878 149.961 756.659 149.431 756.659 148.879C756.659 148.326 756.878 147.797 757.267 147.405C757.657 147.013 758.185 146.791 758.738 146.787H845.619C845.895 146.785 846.168 146.838 846.424 146.942C846.679 147.047 846.912 147.2 847.108 147.395C847.303 147.589 847.459 147.82 847.565 148.075C847.671 148.33 847.726 148.603 847.726 148.879C847.726 149.154 847.671 149.428 847.565 149.682C847.459 149.937 847.303 150.168 847.108 150.363C846.912 150.557 846.679 150.711 846.424 150.815C846.168 150.919 845.895 150.972 845.619 150.97Z" fill="#20A7DB"/>
<path d="M955.832 151.667H868.951C868.399 151.663 867.87 151.441 867.481 151.05C867.091 150.658 866.873 150.128 866.873 149.576C866.873 149.024 867.091 148.494 867.481 148.102C867.87 147.71 868.399 147.488 868.951 147.484H955.832C956.384 147.488 956.913 147.71 957.302 148.102C957.692 148.494 957.91 149.024 957.91 149.576C957.91 150.128 957.692 150.658 957.302 151.05C956.913 151.441 956.384 151.663 955.832 151.667Z" fill="#20A7DB"/>
<path d="M581.561 130.331C590.479 130.331 597.708 123.107 597.708 114.196C597.708 105.284 590.479 98.0605 581.561 98.0605C572.643 98.0605 565.413 105.284 565.413 114.196C565.413 123.107 572.643 130.331 581.561 130.331Z" fill="#20A7DB"/>
<path d="M692.44 130.331C701.358 130.331 708.587 123.107 708.587 114.196C708.587 105.284 701.358 98.0605 692.44 98.0605C683.522 98.0605 676.292 105.284 676.292 114.196C676.292 123.107 683.522 130.331 692.44 130.331Z" fill="#20A7DB"/>
<path d="M803.319 130.331C812.237 130.331 819.466 123.107 819.466 114.196C819.466 105.284 812.237 98.0605 803.319 98.0605C794.401 98.0605 787.171 105.284 787.171 114.196C787.171 123.107 794.401 130.331 803.319 130.331Z" fill="#20A7DB"/>
<path d="M914.198 130.331C923.116 130.331 930.345 123.107 930.345 114.196C930.345 105.284 923.116 98.0605 914.198 98.0605C905.28 98.0605 898.05 105.284 898.05 114.196C898.05 123.107 905.28 130.331 914.198 130.331Z" fill="#20A7DB"/>
</g>
<defs>
<clipPath id="clip0_1583_1698">
<rect width="1024" height="680" fill="white"/>
</clipPath>
</defs>
</svg>
