<svg width="1024" height="713" viewBox="0 0 1024 713" fill="none" xmlns="http://www.w3.org/2000/svg">
<g clip-path="url(#clip0_1582_1643)">
<path d="M204.025 713C316.705 713 408.05 706.057 408.05 697.492C408.05 688.928 316.705 681.985 204.025 681.985C91.3452 681.985 0 688.928 0 697.492C0 706.057 91.3452 713 204.025 713Z" fill="#E6E6E6"/>
<path d="M155.953 158.202C191.46 143.088 235.684 152.664 278.873 159.31C279.275 151.262 284.147 141.466 279.043 135.851C272.844 129.03 273.415 121.862 277.145 114.653C286.685 96.2183 273.017 76.6029 259.216 60.2929C256.106 56.625 252.175 53.743 247.742 51.8812C243.31 50.0193 238.501 49.23 233.706 49.5774L208.142 51.4049C201.921 51.8495 195.984 54.1849 191.126 58.0986C186.268 62.0122 182.719 67.3174 180.956 73.3043C174.852 81.6127 171.585 89.8981 173.642 98.1403C164.499 104.393 162.962 111.942 167.071 120.451C170.555 125.809 170.518 131.024 166.912 136.095C162.178 142.56 158.551 149.769 156.182 157.426L155.953 158.202Z" fill="#2F2E41"/>
<path d="M999.735 616.377H276.068C269.633 616.377 263.461 613.819 258.91 609.265C254.36 604.71 251.803 598.534 251.803 592.093C514.132 561.582 771.531 561.582 1024 592.093C1024 598.534 1021.44 604.71 1016.89 609.265C1012.34 613.819 1006.17 616.377 999.735 616.377Z" fill="#2F2E41"/>
<path d="M1024 593.522L251.803 592.093L341.298 441.392L341.726 440.677V108.548C341.726 104.517 342.519 100.525 344.061 96.8002C345.602 93.0757 347.861 89.6915 350.71 86.8409C353.558 83.9903 356.94 81.7292 360.661 80.1866C364.383 78.644 368.372 77.8502 372.4 77.8506H899.121C903.149 77.8502 907.138 78.644 910.86 80.1866C914.581 81.7292 917.963 83.9903 920.811 86.8409C923.66 89.6915 925.919 93.0757 927.461 96.8002C929.002 100.525 929.795 104.517 929.795 108.548V442.963L1024 593.522Z" fill="#3F3D56"/>
<path d="M371.701 99.2773C369.052 99.2803 366.512 100.335 364.639 102.209C362.766 104.084 361.712 106.625 361.709 109.277V412.108C361.712 414.759 362.766 417.301 364.639 419.175C366.512 421.05 369.052 422.104 371.701 422.108H904.102C906.751 422.104 909.291 421.05 911.164 419.175C913.037 417.301 914.091 414.759 914.094 412.108V109.277C914.091 106.626 913.037 104.084 911.164 102.209C909.291 100.335 906.751 99.2804 904.102 99.2773H371.701Z" fill="white"/>
<path d="M373.932 462.104C373.113 462.105 372.312 462.341 371.623 462.783C370.933 463.225 370.385 463.855 370.041 464.598L342.465 524.593C342.165 525.246 342.034 525.964 342.083 526.681C342.133 527.398 342.362 528.091 342.749 528.696C343.137 529.301 343.67 529.799 344.3 530.144C344.93 530.489 345.637 530.67 346.355 530.67H926.267C926.997 530.67 927.715 530.483 928.352 530.127C928.99 529.771 929.526 529.259 929.909 528.637C930.293 528.016 930.511 527.306 930.544 526.577C930.577 525.847 930.422 525.121 930.096 524.468L900.121 464.473C899.768 463.759 899.222 463.16 898.545 462.741C897.868 462.322 897.088 462.102 896.293 462.104H373.932Z" fill="#2F2E41"/>
<path d="M635.761 94.2788C639.308 94.2788 642.184 91.4007 642.184 87.8503C642.184 84.3 639.308 81.4219 635.761 81.4219C632.213 81.4219 629.338 84.3 629.338 87.8503C629.338 91.4007 632.213 94.2788 635.761 94.2788Z" fill="white"/>
<path d="M578.76 542.098C577.819 542.099 576.904 542.41 576.157 542.983C575.41 543.556 574.872 544.359 574.626 545.268L567.709 570.981C567.538 571.616 567.515 572.282 567.642 572.927C567.77 573.572 568.044 574.18 568.444 574.702C568.844 575.224 569.358 575.647 569.948 575.938C570.537 576.229 571.186 576.38 571.843 576.38H703.393C704.075 576.38 704.748 576.217 705.355 575.904C705.961 575.591 706.485 575.137 706.88 574.581C707.276 574.024 707.533 573.381 707.63 572.705C707.727 572.028 707.661 571.339 707.438 570.693L698.545 544.981C698.253 544.139 697.707 543.409 696.982 542.893C696.256 542.376 695.388 542.098 694.498 542.098H578.76Z" fill="#2F2E41"/>
<path d="M929.795 435.678V441.391H341.298L341.741 440.678V435.678H929.795Z" fill="#2F2E41"/>
<path d="M913.38 199.983C968.562 199.983 1013.29 155.216 1013.29 99.9916C1013.29 44.7678 968.562 0 913.38 0C858.199 0 813.466 44.7678 813.466 99.9916C813.466 155.216 858.199 199.983 913.38 199.983Z" fill="#20A7DB"/>
<path d="M954.773 143.56H871.987C870.473 143.558 869.022 142.956 867.952 141.885C866.881 140.813 866.279 139.361 866.278 137.846V87.85C866.279 86.3351 866.881 84.8827 867.952 83.8115C869.022 82.7403 870.473 82.1378 871.987 82.1362H954.773C956.287 82.1378 957.738 82.7403 958.809 83.8115C959.879 84.8827 960.481 86.3351 960.483 87.85V137.846C960.481 139.361 959.879 140.813 958.809 141.885C957.739 142.956 956.287 143.558 954.773 143.56ZM871.987 87.8501V137.846H954.778L954.773 87.85L871.987 87.8501Z" fill="white"/>
<path d="M939.073 87.8496H887.688V64.9944C887.688 48.4402 898.493 36.4253 913.38 36.4253C928.267 36.4253 939.073 48.4402 939.073 64.9944L939.073 87.8496ZM893.397 82.1358H933.363V64.9944C933.363 51.5377 925.146 42.1391 913.38 42.1391C901.614 42.1391 893.397 51.5377 893.397 64.9944L893.397 82.1358Z" fill="white"/>
<path d="M913.38 117.134C916.534 117.134 919.09 114.576 919.09 111.42C919.09 108.264 916.534 105.706 913.38 105.706C910.227 105.706 907.671 108.264 907.671 111.42C907.671 114.576 910.227 117.134 913.38 117.134Z" fill="white"/>
<path d="M843.631 319.39H432.172C430.152 319.388 428.215 318.583 426.787 317.154C425.358 315.724 424.555 313.786 424.552 311.764V209.62C424.555 207.598 425.358 205.66 426.787 204.231C428.215 202.801 430.152 201.997 432.172 201.995H843.631C845.651 201.997 847.588 202.801 849.017 204.231C850.445 205.66 851.249 207.598 851.251 209.62V311.764C851.249 313.786 850.445 315.724 849.017 317.154C847.588 318.583 845.651 319.388 843.631 319.39ZM432.172 205.045C430.96 205.046 429.798 205.529 428.941 206.386C428.084 207.244 427.602 208.407 427.6 209.62V311.764C427.602 312.977 428.084 314.14 428.941 314.998C429.798 315.856 430.96 316.338 432.172 316.34H843.631C844.843 316.338 846.005 315.856 846.863 314.998C847.72 314.14 848.202 312.977 848.203 311.764V209.62C848.202 208.407 847.72 207.244 846.863 206.386C846.005 205.529 844.843 205.046 843.631 205.045L432.172 205.045Z" fill="#E6E6E6"/>
<path d="M496.104 287.835C513.246 287.835 527.143 273.928 527.143 256.773C527.143 239.618 513.246 225.711 496.104 225.711C478.962 225.711 465.066 239.618 465.066 256.773C465.066 273.928 478.962 287.835 496.104 287.835Z" fill="#E6E6E6"/>
<path d="M567.788 236.065C567.108 236.064 566.434 236.197 565.806 236.457C565.177 236.716 564.606 237.098 564.125 237.578C563.644 238.059 563.262 238.63 563.001 239.259C562.741 239.888 562.607 240.562 562.607 241.242C562.607 241.923 562.741 242.597 563.001 243.225C563.262 243.854 563.644 244.425 564.125 244.906C564.606 245.387 565.177 245.768 565.806 246.028C566.434 246.288 567.108 246.421 567.788 246.42H811.66C813.032 246.42 814.347 245.874 815.318 244.903C816.288 243.932 816.833 242.615 816.833 241.242C816.833 239.869 816.288 238.552 815.318 237.581C814.347 236.61 813.032 236.065 811.66 236.065H567.788Z" fill="#E6E6E6"/>
<path d="M567.788 267.127C566.416 267.127 565.1 267.673 564.13 268.644C563.16 269.615 562.615 270.932 562.615 272.305C562.615 273.678 563.16 274.995 564.13 275.966C565.1 276.937 566.416 277.482 567.788 277.482H672.727C674.099 277.482 675.414 276.937 676.385 275.966C677.355 274.995 677.9 273.678 677.9 272.305C677.9 270.932 677.355 269.615 676.385 268.644C675.414 267.673 674.099 267.127 672.727 267.127H567.788Z" fill="#E6E6E6"/>
<path d="M340.286 269.222L264.224 309.691L263.261 275.966C288.087 271.819 311.707 264.598 333.546 252.841L341.501 233.173C342.368 231.029 343.777 229.149 345.589 227.715C347.402 226.281 349.556 225.344 351.84 224.995C354.123 224.646 356.459 224.897 358.616 225.724C360.774 226.551 362.679 227.925 364.146 229.712C366.291 232.326 367.364 235.658 367.146 239.034C366.928 242.41 365.436 245.577 362.973 247.893L340.286 269.222Z" fill="#FFB8B8"/>
<path d="M154.437 502.875C153.882 500.838 153.764 498.707 154.091 496.621C154.418 494.536 155.183 492.543 156.334 490.775L173.043 465.113C176.995 459.043 183.059 454.659 190.058 452.811C197.058 450.963 204.494 451.782 210.923 455.111C203.901 467.073 204.88 477.567 213.348 486.687C200.202 493.109 188.052 501.399 177.274 511.298C175.307 512.641 173.047 513.493 170.684 513.785C168.321 514.076 165.922 513.798 163.687 512.974C161.453 512.15 159.448 510.803 157.839 509.046C156.23 507.29 155.063 505.174 154.437 502.875Z" fill="#2F2E41"/>
<path d="M343.75 469.321C341.222 473.538 337.653 477.034 333.385 479.474C329.118 481.913 324.296 483.214 319.382 483.251L208.382 484.092L203.568 456.15L252.671 441.696L211.27 409.899L256.522 356.904L338.713 433.569C343.517 438.05 346.638 444.045 347.555 450.553C348.472 457.06 347.129 463.686 343.75 469.321Z" fill="#2F2E41"/>
<path d="M191.051 660.421H165.055C141.715 500.309 117.957 339.748 188.163 279.82L270.964 293.31L260.373 363.649L214.158 416.644L191.051 660.421Z" fill="#2F2E41"/>
<path d="M213.903 696.691C211.868 697.247 209.738 697.365 207.654 697.038C205.57 696.711 203.579 695.946 201.812 694.793L173.586 690.996C167.521 687.042 163.14 680.973 161.293 673.969C159.446 666.964 160.264 659.522 163.59 653.088C175.543 660.114 186.029 659.134 195.141 650.659C201.579 663.669 212.187 662.875 222.318 673.836C223.66 675.805 224.512 678.066 224.803 680.431C225.095 682.797 224.817 685.197 223.994 687.433C223.17 689.669 221.825 691.676 220.07 693.287C218.314 694.897 216.2 696.064 213.903 696.691Z" fill="#2F2E41"/>
<path d="M252.671 172.867L204.53 161.304C212.526 144.926 213.184 126.702 209.344 107.346L242.08 106.382C243.105 130.452 246.208 152.939 252.671 172.867Z" fill="#FFB8B8"/>
<path d="M265.901 322.322C230.857 346.221 206.096 323.14 187.2 287.529C189.826 265.738 185.574 239.662 177.7 211.327C174.198 198.829 175.506 185.472 181.364 173.892C187.223 162.312 197.206 153.351 209.344 148.778L250.745 166.122C285.899 194.799 292.818 225.861 279.629 258.623L265.901 322.322Z" fill="#20A7DB"/>
<path d="M165.055 196.956L126.543 217.19L194.902 257.659L204.414 281.139C205.049 282.707 205.358 284.387 205.323 286.077C205.288 287.768 204.909 289.434 204.209 290.973C203.51 292.513 202.505 293.893 201.254 295.031C200.004 296.169 198.536 297.04 196.938 297.591C195.122 298.218 193.186 298.416 191.281 298.168C189.377 297.921 187.555 297.236 185.959 296.166C184.362 295.097 183.035 293.672 182.081 292.004C181.127 290.335 180.572 288.468 180.459 286.549L179.497 270.185L92.614 241.491C89.6866 240.525 87.0176 238.904 84.8088 236.752C82.6001 234.6 80.9096 231.973 79.8654 229.071C78.3434 224.84 78.266 220.223 79.6451 215.943C81.0243 211.663 83.7823 207.962 87.4875 205.418L157.353 157.45L165.055 196.956Z" fill="#FFB8B8"/>
<path d="M203.568 200.81C187.506 193.765 172.9 201.418 154.465 207.555L151.576 156.487C169.882 146.723 187.335 144.09 203.568 151.669L203.568 200.81Z" fill="#20A7DB"/>
<path d="M222.781 131.678C239.756 131.678 253.517 117.906 253.517 100.919C253.517 83.9306 239.756 70.1592 222.781 70.1592C205.806 70.1592 192.046 83.9306 192.046 100.919C192.046 117.906 205.806 131.678 222.781 131.678Z" fill="#FFB8B8"/>
<path d="M259.551 97.0376C229.12 100.02 205.932 95.0396 191.112 80.8579V69.437H256.968L259.551 97.0376Z" fill="#2F2E41"/>
</g>
<defs>
<clipPath id="clip0_1582_1643">
<rect width="1024" height="713" fill="white"/>
</clipPath>
</defs>
</svg>
